<svg width="22" height="14" xmlns="http://www.w3.org/2000/svg"><g fill="#0C0C0D" fill-rule="evenodd"><path d="M.858 11.88h-.02c.139-5.17 4.074-9.606 9.405-10.26a10.706 10.706 0 0 1 10.588 5.25l-2.593.886a8.033 8.033 0 0 0-7.672-3.503c-3.937.483-6.86 3.718-7.046 7.52a1.33 1.33 0 0 1-1.167 1.436A1.33 1.33 0 0 1 .858 11.88z"/><path d="M18.918 6.918l-1.265-5.481a1 1 0 0 1 .75-1.2l.649-.15a1 1 0 0 1 1.2.75l1.638 7.099a1 1 0 0 1-.5 1.106 1 1 0 0 1-.27.105l-7.1 1.64a1 1 0 0 1-1.2-.75l-.15-.65a1 1 0 0 1 .75-1.2l5.498-1.269z"/></g></svg>