<svg width="22" height="14" xmlns="http://www.w3.org/2000/svg"><g fill="#0C0C0D" fill-rule="evenodd"><path d="M21.517 12.458h.02c-.139-5.17-4.074-9.606-9.405-10.26a10.706 10.706 0 0 0-10.588 5.25l2.593.886a8.033 8.033 0 0 1 7.672-3.503c3.937.483 6.86 3.717 7.046 7.52a1.33 1.33 0 0 0 1.167 1.436 1.33 1.33 0 0 0 1.495-1.33z"/><path d="M3.202 7.05L4.468 1.57a1 1 0 0 0-.75-1.2l-.65-.15A1 1 0 0 0 1.87.97L.23 8.069a1 1 0 0 0 .5 1.105 1 1 0 0 0 .271.106l7.1 1.638A1 1 0 0 0 9.3 10.17l.15-.65A1 1 0 0 0 8.7 8.32L3.202 7.05z"/></g></svg>