<svg width="20" height="19" xmlns="http://www.w3.org/2000/svg"><path d="M1.333 0a1.33 1.33 0 0 1 1.333 1.326v3.208C4.98.682 9.73-.972 13.951.605c4.222 1.578 6.705 5.934 5.897 10.348-.807 4.414-4.673 7.621-9.182 7.618a9.295 9.295 0 0 1-6.6-2.72 1.322 1.322 0 0 1 .017-1.859 1.338 1.338 0 0 1 1.869-.016 6.717 6.717 0 0 0 7.856 1.245 6.648 6.648 0 0 0 3.501-7.108A6.678 6.678 0 0 0 11.505 2.7a6.697 6.697 0 0 0-6.904 3.933h3.398A1.33 1.33 0 0 1 9.333 7.96a1.33 1.33 0 0 1-1.334 1.326H1.333A1.33 1.33 0 0 1 0 7.96V1.326A1.33 1.33 0 0 1 1.333 0z" fill-rule="nonzero" fill="#0C0C0D"/></svg>