<?xml version="1.0" encoding="utf-8"?>
<!-- Generator: Adobe Illustrator 22.1.0, SVG Export Plug-In . SVG Version: 6.00 Build 0)  -->
<svg version="1.1" id="Layer_1" xmlns="http://www.w3.org/2000/svg" xmlns:xlink="http://www.w3.org/1999/xlink" x="0px" y="0px"
	 viewBox="0 0 16 16" style="enable-background:new 0 0 16 16;" xml:space="preserve">
<path d="M11.1,10.4c0.2,0,0.4,0.1,0.5,0.2l2.1,2.1c0.1,0.1,0.2,0.3,0.2,0.5c0,0.2-0.1,0.4-0.2,0.5c-0.1,0.1-0.3,0.2-0.5,0.2
	c-0.2,0-0.4-0.1-0.5-0.2l-2.1-2.1c-0.1-0.1-0.2-0.3-0.2-0.5c0-0.2,0.1-0.4,0.2-0.5C10.7,10.4,10.9,10.4,11.1,10.4L11.1,10.4z
	 M4.9,10.4c0.2,0,0.4,0.1,0.5,0.2c0.1,0.1,0.2,0.3,0.2,0.5c0,0.2-0.1,0.4-0.2,0.5l-2.1,2.1c-0.1,0.1-0.3,0.2-0.5,0.2
	c-0.2,0-0.4-0.1-0.5-0.2c-0.1-0.1-0.2-0.3-0.2-0.5c0-0.2,0.1-0.4,0.2-0.5l2.1-2.1C4.5,10.4,4.7,10.4,4.9,10.4L4.9,10.4z M0.7,7.3
	h2.9c0.2,0,0.4,0.1,0.5,0.2C4.3,7.6,4.4,7.8,4.4,8c0,0.2-0.1,0.4-0.2,0.5C4,8.7,3.8,8.7,3.6,8.7H0.7c-0.2,0-0.4-0.1-0.5-0.2
	C0.1,8.4,0,8.2,0,8c0-0.2,0.1-0.4,0.2-0.5S0.5,7.3,0.7,7.3z M8,11.6c0.2,0,0.4,0.1,0.5,0.2c0.1,0.1,0.2,0.3,0.2,0.5v2.9
	c0,0.2-0.1,0.4-0.2,0.5C8.4,15.9,8.2,16,8,16c-0.2,0-0.4-0.1-0.5-0.2s-0.2-0.3-0.2-0.5v-2.9c0-0.2,0.1-0.4,0.2-0.5
	C7.6,11.7,7.8,11.6,8,11.6z M2.9,2.1c0.2,0,0.4,0.1,0.5,0.2l2.1,2.1c0.1,0.1,0.2,0.3,0.2,0.5c0,0.2-0.1,0.4-0.2,0.5
	C5.3,5.6,5.1,5.6,4.9,5.6c-0.2,0-0.4-0.1-0.5-0.2L2.3,3.4C2.2,3.2,2.1,3.1,2.1,2.9c0-0.2,0.1-0.4,0.2-0.5C2.5,2.2,2.7,2.1,2.9,2.1
	L2.9,2.1z M12.4,7.3h2.9c0.2,0,0.4,0.1,0.5,0.2S16,7.8,16,8c0,0.2-0.1,0.4-0.2,0.5c-0.1,0.1-0.3,0.2-0.5,0.2h-2.9
	c-0.2,0-0.4-0.1-0.5-0.2c-0.1-0.1-0.2-0.3-0.2-0.5c0-0.2,0.1-0.4,0.2-0.5C12,7.3,12.2,7.3,12.4,7.3z M8,0c0.2,0,0.4,0.1,0.5,0.2
	c0.1,0.1,0.2,0.3,0.2,0.5v2.9c0,0.2-0.1,0.4-0.2,0.5C8.4,4.3,8.2,4.4,8,4.4c-0.2,0-0.4-0.1-0.5-0.2C7.3,4,7.3,3.8,7.3,3.6V0.7
	c0-0.2,0.1-0.4,0.2-0.5S7.8,0,8,0L8,0z M13.1,2.1c0.2,0,0.4,0.1,0.5,0.2c0.1,0.1,0.2,0.3,0.2,0.5c0,0.2-0.1,0.4-0.2,0.5l-2.1,2.1
	c-0.1,0.1-0.3,0.2-0.5,0.2c-0.2,0-0.4-0.1-0.5-0.2s-0.2-0.3-0.2-0.5c0-0.2,0.1-0.4,0.2-0.5l2.1-2.1C12.8,2.2,12.9,2.1,13.1,2.1
	L13.1,2.1z"/>
</svg>
