<svg width="16" height="15" viewBox="0 0 16 15" xmlns="http://www.w3.org/2000/svg"><title>Feedback</title><g fill-rule="nonzero" fill="#fff"><path d="M13.113.441H2.703C1.453.443.442 1.467.44 2.731v5.816c.002 1.264 1.013 2.288 2.261 2.29H8.15l2.769 3.433c.25.309.664.426 1.036.291a.944.944 0 0 0 .62-.89v-2.835h.538c1.248-.001 2.26-1.025 2.261-2.29V2.732c-.001-1.264-1.013-2.288-2.261-2.29zm.395 8.106a.402.402 0 0 1-.116.282.392.392 0 0 1-.28.117h-1.471a.94.94 0 0 0-.933.945v1.129L9.316 9.293a.929.929 0 0 0-.723-.347h-5.89a.392.392 0 0 1-.28-.117.402.402 0 0 1-.115-.282V2.73c0-.22.176-.4.394-.4h10.41c.219 0 .396.18.396.4v5.816z"/><path d="M10.686 4.05H4.45a.448.448 0 0 0-.445.45c0 .25.199.452.445.452h6.236a.448.448 0 0 0 .446-.451c0-.25-.2-.451-.446-.451zm0 1.804H4.45a.448.448 0 0 0-.445.45c0 .25.199.452.445.452h6.236a.448.448 0 0 0 .446-.451c0-.25-.2-.451-.446-.451z"/></g></svg>
