<svg id="Layer_1" xmlns="http://www.w3.org/2000/svg" viewBox="0 0 16 16"><path d="M12.8 6.9c.3.3.8.3 1 0l1.9-2.1c.3-.3.3-.7 0-1l-2-2.1c-.3-.3-.7-.3-1-.1-.3.3-.3.7-.1 1l.8.8h-3.3c-.2 0-.4.1-.6.3l-2.6 3-2.6-3c.1 0-.1-.1-.3-.1H.7c-.4 0-.7.3-.7.7 0 .4.3.7.7.7h3l2.5 3-2.5 3h-3c-.4 0-.7.3-.7.7s.3.7.7.7H4c.2 0 .4-.1.6-.3l2.6-3 2.6 3c.1.2.4.3.6.3h3.3l-.8.8c-.3.3-.2.8.1 1 .3.3.7.2 1 0l2-2.1c.3-.3.3-.7 0-1L14 9c-.3-.3-.8-.3-1 0-.3.3-.3.7 0 1l.8.8h-3L8.1 8l2.5-3h3l-.8.8c-.3.4-.3.8 0 1.1z"/><text transform="translate(-9.56 110.137)" font-family="HelveticaNeue-Bold" font-size="5">Created by juli</text><text transform="translate(-9.56 115.137)" font-family="HelveticaNeue-Bold" font-size="5">from the Noun Project</text></svg>