<svg width="553" height="115" xmlns="http://www.w3.org/2000/svg"><g fill-rule="nonzero" fill="#45A1FF"><path d="M20.807 44.787c0 .118.086.213.193.213.107 0 .193-.095.193-.213.58-2.492 2.348-4.438 4.614-5.074.106 0 .193-.096.193-.213 0-.117-.087-.213-.193-.213-2.266-.636-4.035-2.582-4.614-5.074 0-.118-.086-.213-.193-.213-.107 0-.193.095-.193.213-.58 2.492-2.348 4.438-4.614 5.074-.106 0-.193.096-.193.213 0 .117.087.213.193.213 2.266.636 4.035 2.582 4.614 5.074zM59.642 28.649a.351.351 0 1 0 .702 0 11.508 11.508 0 0 1 8.305-8.29.351.351 0 1 0 0-.703 11.508 11.508 0 0 1-8.29-8.305.351.351 0 1 0-.703 0 11.452 11.452 0 0 1-8.305 8.29.351.351 0 1 0 0 .703 11.508 11.508 0 0 1 8.29 8.305z"/><path d="M.435 102.032c5.92 1.57 10.541 6.37 12.053 12.516.041.26.258.452.512.452s.47-.191.512-.452c1.512-6.146 6.134-10.946 12.053-12.516A.533.533 0 0 0 26 101.5a.533.533 0 0 0-.435-.532c-5.92-1.57-10.541-6.37-12.053-12.516A.525.525 0 0 0 13 88a.525.525 0 0 0-.512.452C10.976 94.598 6.354 99.398.435 100.968A.533.533 0 0 0 0 101.5c0 .264.184.489.435.532z" fill-opacity=".8"/><path d="M533.807 10.787c0 .118.086.213.193.213.107 0 .193-.095.193-.213.58-2.492 2.348-4.438 4.614-5.074.106 0 .193-.096.193-.213 0-.117-.087-.213-.193-.213-2.266-.636-4.035-2.582-4.614-5.074 0-.118-.086-.213-.193-.213-.107 0-.193.095-.193.213-.58 2.492-2.348 4.438-4.614 5.074-.106 0-.193.096-.193.213 0 .117.087.213.193.213 2.266.636 4.035 2.582 4.614 5.074z"/><path d="M543.122 54.63a.37.37 0 1 0 .741 0 12.148 12.148 0 0 1 8.766-8.752.37.37 0 0 0 0-.741 12.148 12.148 0 0 1-8.75-8.766.37.37 0 1 0-.742 0 12.088 12.088 0 0 1-8.766 8.75.37.37 0 0 0 0 .742 12.148 12.148 0 0 1 8.75 8.766z" fill-opacity=".7"/><path d="M484.468 21.071c6.375 1.686 11.352 6.842 12.98 13.444.045.28.278.485.552.485a.565.565 0 0 0 .551-.485c1.629-6.602 6.606-11.758 12.98-13.444A.573.573 0 0 0 512 20.5a.573.573 0 0 0-.468-.571c-6.375-1.686-11.352-6.842-12.98-13.444A.565.565 0 0 0 498 6a.565.565 0 0 0-.551.485c-1.629 6.602-6.606 11.758-12.98 13.444a.573.573 0 0 0-.469.571c0 .283.198.525.468.571z"/></g></svg>