<svg width="446" height="644" viewBox="0 0 446 644" xmlns="http://www.w3.org/2000/svg"><title>bg_texture</title><g fill="#FFF" fill-rule="evenodd" opacity=".25"><path d="M.537 387.284L482.714-94.893l3.535 3.535L4.072 390.82zM9.266 396.013L491.443-86.164l3.535 3.535L12.801 399.548zM17.995 404.742L500.172-77.435l3.536 3.536L21.53 408.278zM26.724 413.47L508.9-68.705l3.535 3.535L30.26 417.006zM35.453 422.2L517.63-59.977l3.535 3.535L38.988 425.735zM44.182 430.929L526.36-51.248l3.536 3.536L47.718 434.465zM52.911 439.658L535.088-42.519l3.536 3.536L56.447 443.194zM61.64 448.387L543.818-33.789l3.536 3.535L65.176 451.923zM70.37 457.117L552.547-25.06l3.535 3.535L73.905 460.652zM79.098 465.845L561.275-16.332l3.536 3.536L82.634 469.38zM87.828 474.574L570.004-7.602l3.536 3.535L91.363 478.11zM96.557 483.304L578.734 1.127l3.535 3.535L100.092 486.84zM105.286 492.033L587.463 9.856l3.535 3.536-482.176 482.176zM114.015 500.762L596.192 18.585l3.536 3.536L117.55 504.298zM122.745 509.491L604.92 27.315l3.536 3.535L126.28 513.027zM131.473 518.22L613.65 36.043l3.535 3.536L135.01 521.755zM140.202 526.95L622.38 44.771l3.536 3.536-482.177 482.177zM148.932 535.678L631.108 53.502l3.536 3.535-482.177 482.177zM157.66 544.408L639.839 62.23l3.535 3.535-482.177 482.177zM166.39 553.137L648.567 70.96l3.535 3.536-482.176 482.176zM175.12 561.866L657.295 79.69l3.536 3.536-482.177 482.177zM183.848 570.595L666.025 88.418l3.535 3.535L187.383 574.13zM192.577 579.324L674.754 97.147l3.535 3.536-482.176 482.176zM201.306 588.053l482.177-482.177 3.536 3.536-482.177 482.177zM210.035 596.782l482.177-482.177 3.536 3.536L213.57 600.318zM218.765 605.512l482.177-482.177 3.535 3.535L222.3 609.047zM227.494 614.24L709.67 132.065l3.535 3.535L231.03 617.776zM236.222 622.97L718.4 140.791l3.536 3.536-482.177 482.177zM244.952 631.699l482.177-482.177 3.535 3.535-482.177 482.177zM253.68 640.428L735.859 158.25l3.535 3.535-482.177 482.177z"/></g></svg>