<svg xmlns="http://www.w3.org/2000/svg" width="236" height="411" viewBox="0 0 236 411"><g fill="#FFF" fill-rule="evenodd" opacity=".404"><path d="M235.5 14.999l-5-2.499v5zM235.5 28.999l-5-2.499v5zM235.5 45.001l-5-2.501v5zM235.5 59.999l-5-2.499v5zM235.5 75.999l-5-2.499v5zM235.5 90.999l-5-2.499v5zM235.5 107.001l-5-2.501v5zM235.5 121.999l-5-2.499v5zM235.5 135.999l-5-2.499v5zM235.5 152.001l-5-2.501v5zM235.5 166.999l-5-2.499v5zM235.5 183l-5-2.5v5zM235.5 198l-5-2.5v5zM235.5 214.001l-5-2.501v5zM235.5 228l-5-2.5v5zM235.5 244.002l-5-2.502v5zM235.5 258.999l-5-2.499v5zM235.5 274.999l-5-2.499v5zM235.5 290l-5-2.5v5zM235.5 306.001l-5-2.501v5zM235.5 320.001l-5-2.501v5zM235.5 335l-5-2.5v5zM235.5 351.001l-5-2.501v5zM235.5 366.001l-5-2.501v5zM235.5 382l-5-2.5v5zM235.5 397l-5-2.5v5zM214.5 5.5l4 2.002-4 1.998zM214.5 20.5l4 2.001-4 1.999zM214.5 35.5l4 1.997-4 2.003zM214.5 50.5l4 2-4 2zM214.5 66.5l4 1.999-4 2.001zM214.5 81.5l4 1.998-4 2.002zM214.5 96.5l4 2.001-4 1.999zM214.5 112.5l4 2.002-4 1.998zM214.5 127.5l4 2-4 2zM214.5 142.5l4 2-4 2zM214.5 157.5l4 2.001-4 1.999zM214.5 173.5l4 2.001-4 1.999zM214.5 188.5l4 1.999-4 2.001zM214.5 204.5l4 2-4 2zM214.5 219.5l4 1.999-4 2.001zM214.5 233.5l4 2-4 2zM214.5 249.5l4 1.998-4 2.002zM214.5 264.5l4 1.998-4 2.002zM214.5 280.5l4 1.999-4 2.001zM214.5 295.5l4 2.001-4 1.999zM214.5 311.5l4 2-4 2zM214.5 325.5l4 2-4 2zM214.5 341.5l4 2.001-4 1.999zM214.5 356.5l4 1.999-4 2.001zM214.5 372.5l4 1.998-4 2.002zM214.5 387.5l4 2-4 2zM214.5 403.5l4 2.001-4 1.999zM200.5 13.5l3 1.498-3 1.502zM200.5 27.5l3 1.501-3 1.499zM200.5 43.5l3 1.5-3 1.5zM200.5 58.5l3 1.499-3 1.501zM200.5 74.5l3 1.5-3 1.5zM200.5 89.5l3 1.5-3 1.5zM200.5 105.5l3 1.498-3 1.502zM200.5 119.5l3 1.502-3 1.498zM200.5 135.5l3 1.502-3 1.498zM200.5 150.5l3 1.5-3 1.5zM200.5 166.5l3 1.5-3 1.5zM200.5 181.5l3 1.501-3 1.499zM200.5 197.5l3 1.499-3 1.501zM200.5 211.5l3 1.5-3 1.5zM200.5 226.5l3 1.5-3 1.5zM200.5 242.5l3 1.498-3 1.502zM200.5 257.5l3 1.499-3 1.501zM200.5 273.5l3 1.501-3 1.499zM200.5 288.5l3 1.499-3 1.501zM200.5 303.5l3 1.498-3 1.502zM200.5 318.5l3 1.5-3 1.5zM200.5 334.5l3 1.501-3 1.499zM200.5 349.5l3 1.499-3 1.501zM200.5 365.5l3 1.502-3 1.498zM200.5 380.5l3 1.501-3 1.499zM200.5 396.5l3 1.5-3 1.5zM185.5 5.5l4 2.5-4 2.5zM185.5 19.5l4 2.502-4 2.498zM185.5 35.5l4 2.498-4 2.502zM185.5 50.5l4 2.5-4 2.5zM185.5 66.5l4 2.5-4 2.5zM185.5 81.5l4 2.5-4 2.5zM185.5 96.5l4 2.501-4 2.499zM185.5 111.5l4 2.502-4 2.498zM185.5 126.5l4 2.5-4 2.5zM185.5 142.5l4 2.499-4 2.501zM185.5 157.5l4 2.5-4 2.5zM185.5 173.5l4 2.5-4 2.5zM185.5 188.5l4 2.499-4 2.501zM185.5 203.5l4 2.499-4 2.501zM185.5 218.5l4 2.5-4 2.5zM185.5 233.5l4 2.5-4 2.5zM185.5 249.5l4 2.498-4 2.502zM185.5 264.5l4 2.498-4 2.502zM185.5 280.5l4 2.499-4 2.501zM185.5 294.5l4 2.501-4 2.499zM185.5 310.5l4 2.5-4 2.5zM185.5 325.5l4 2.5-4 2.5zM185.5 341.5l4 2.5-4 2.5zM185.5 356.5l4 2.498-4 2.502zM185.5 372.5l4 2.5-4 2.5zM185.5 387.5l4 2.499-4 2.501zM185.5 401.5l4 2.499-4 2.501zM169.5 11.5l5 2.998-5 3.002zM169.5 26.5l5 3-5 3zM169.5 42.5l5 3.001-5 2.999zM169.5 57.5l5 3-5 3zM169.5 73.5l5 2.999-5 3.001zM169.5 88.5l5 2.999-5 3.001zM169.5 102.5l5 2.999-5 3.001zM169.5 118.5l5 3.001-5 2.999zM169.5 133.5l5 3.001-5 2.999zM169.5 149.5l5 3.001-5 2.999zM169.5 164.5l5 3-5 3zM169.5 180.5l5 3-5 3zM169.5 194.5l5 3-5 3zM169.5 210.5l5 3.001-5 2.999zM169.5 225.5l5 2.999-5 3.001zM169.5 241.5l5 2.999-5 3.001zM169.5 256.5l5 3-5 3zM169.5 272.5l5 2.999-5 3.001zM169.5 286.5l5 2.999-5 3.001zM169.5 301.5l5 2.999-5 3.001zM169.5 317.5l5 3-5 3zM169.5 332.5l5 3-5 3zM169.5 348.5l5 3-5 3zM169.5 363.5l5 3.002-5 2.998zM169.5 378.5l5 3-5 3zM169.5 393.5l5 3.001-5 2.999zM152.5 2.5v8l7-3.999zM152.5 18.5l7 4.001-7 3.999zM152.5 33.5l7 3.999-7 4.001zM152.5 49.5l7 3.999-7 4.001zM152.5 64.5l7 4-7 4zM152.5 79.5l7 3.999-7 4.001zM152.5 94.5l7 4.001-7 3.999zM152.5 110.5l7 4.001-7 3.999zM152.5 125.5l7 4.001-7 3.999zM152.5 141.5l7 3.999-7 4.001zM152.5 156.5l7 4.001-7 3.999zM152.5 170.5l7 4.001-7 3.999zM152.5 186.5l7 4-7 4zM152.5 201.5l7 3.999-7 4.001zM152.5 217.5l7 4-7 4zM152.5 232.5l7 4.001-7 3.999zM152.5 248.5l7 3.998-7 4.002zM152.5 263.5l7 3.999-7 4.001zM152.5 278.5l7 3.999-7 4.001zM152.5 293.5l7 4.001-7 3.999zM152.5 309.5l7 3.999-7 4.001zM152.5 324.5l7 4.001-7 3.999zM152.5 340.5l7 4-7 4zM152.5 355.5l7 3.999-7 4.001zM152.5 369.5l7 4-7 4zM152.5 385.5l7 4-7 4zM152.5 400.5l7 3.999-7 4.001zM136.5 10.5l8 4.998-8 5.002zM136.5 25.5l8 5-8 5zM136.5 41.5l8 5.001-8 4.999zM136.5 55.5l8 4.999-8 5.001zM136.5 70.5l8 4.999-8 5.001zM136.5 86.5l8 4.999-8 5.001zM136.5 101.5l8 5.001-8 4.999zM136.5 117.5l8 5.001-8 4.999zM136.5 132.5l8 5.001-8 4.999zM136.5 147.5l8 5.001-8 4.999zM136.5 162.5l8 5-8 5zM136.5 178.5l8 5-8 5zM136.5 193.5l8 5-8 5zM136.5 208.5l8 5-8 5zM136.5 224.5l8 4.999-8 5.001zM136.5 238.5l8 4.999-8 5.001zM136.5 254.5l8 4.999-8 5.001zM136.5 269.5l8 4.999-8 5.001zM136.5 285.5l8 4.999-8 5.001zM136.5 300.5l8 4.999-8 5.001zM136.5 316.5l8 5-8 5zM136.5 330.5l8 4.999-8 5.001zM136.5 345.5l8 5-8 5zM136.5 361.5l8 5.001-8 4.999zM136.5 376.5l8 5-8 5zM136.5 392.5l8 5.001-8 4.999zM120.5.5v12l10-5.999zM120.5 15.5l10 6.001-10 5.999zM120.5 31.5l10 5.997-10 6.003zM120.5 46.5l10 5.999-10 6.001zM120.5 62.5l10 6.001-10 5.999zM120.5 77.5l10 5.999-10 6.001zM120.5 93.5l10 6.001-10 5.999zM120.5 107.5l10 6.001-10 5.999zM120.5 123.5l10 6.001-10 5.999zM120.5 138.5l10 6-10 6zM120.5 154.5l10 6.001-10 5.999zM120.5 169.5l10 6.002-10 5.998zM120.5 185.5l10 5.999-10 6.001zM120.5 199.5l10 5.998-10 6.002zM120.5 214.5l10 5.999-10 6.001zM120.5 230.5l10 6-10 6zM120.5 245.5l10 5.998-10 6.002zM120.5 261.5l10 5.999-10 6.001zM120.5 276.5l10 6-10 6zM120.5 291.5l10 6.002-10 5.998zM120.5 306.5l10 5.999-10 6.001zM120.5 322.5l10 6-10 6zM120.5 337.5l10 6.001-10 5.999zM120.5 353.5l10 5.999-10 6.001zM120.5 368.5l10 6-10 6zM120.5 382.5l10 5.999-10 6.001zM120.5 398.5v12l10-6.001zM106.5 10.5l9 4.998-9 5.002zM106.5 24.5l9 5-9 5zM106.5 39.5l9 5.001-9 4.999zM106.5 55.5l9 5-9 5zM106.5 70.5l9 4.999-9 5.001zM106.5 86.5l9 5.001-9 4.999zM106.5 101.5l9 5.001-9 4.999zM106.5 116.5l9 5.501-9 5.499zM106.5 131.5l9 5-9 5zM106.5 147.5l9 5.001-9 4.999zM106.5 162.5l9 5.499-9 5.501zM106.5 178.5l9 4.999-9 5.001zM106.5 193.5l9 5-9 5zM106.5 207.5l9 5.501-9 5.499zM106.5 223.5l9 4.998-9 5.002zM106.5 238.5l9 5-9 5zM106.5 254.5l9 5-9 5zM106.5 269.5l9 4.999-9 5.001zM106.5 285.5l9 4.999-9 5.001zM106.5 299.5l9 5-9 5zM106.5 315.5l9 5.501-9 5.499zM106.5 330.5l9 4.998-9 5.002zM106.5 345.5l9 5-9 5zM106.5 361.5l9 5.002-9 4.998zM106.5 376.5l9 5-9 5zM106.5 392.5l9 5.001-9 4.999zM90.5 2.5v9l8-4.498zM90.5 18.5l8 4.502-8 4.498zM90.5 33.5l8 4.498-8 4.502zM90.5 48.5l8 4.499-8 4.501zM90.5 63.5l8 4.5-8 4.5zM90.5 79.5l8 4.499-8 4.501zM90.5 94.5l8 4.5-8 4.5zM90.5 110.5l8 4.502-8 4.498zM90.5 125.5l8 4.501-8 4.499zM90.5 139.5l8 4.499-8 4.501zM90.5 155.5l8 4.5-8 4.5zM90.5 170.5l8 4.501-8 4.499zM90.5 186.5l8 4.499-8 4.501zM90.5 201.5l8 4.499-8 4.501zM90.5 217.5l8 4.5-8 4.5zM90.5 231.5l8 4.501-8 4.499zM90.5 247.5l8 4.497-8 4.503zM90.5 262.5l8 4.498-8 4.502zM90.5 278.5l8 4.5-8 4.5zM90.5 293.5l8 4.501-8 4.499zM90.5 309.5l8 4.499-8 4.501zM90.5 323.5l8 4.501-8 4.499zM90.5 338.5l8 4.5-8 4.5zM90.5 354.5l8 4.498-8 4.502zM90.5 369.5l8 4.498-8 4.502zM90.5 385.5l8 4.5-8 4.5zM90.5 400.5l8 4.5-8 4.5zM76.5 11.5l6 3.498-6 3.502zM76.5 26.5l6 3.501-6 3.499zM76.5 42.5l6 3.501-6 3.499zM76.5 56.5l6 3.498-6 3.502zM76.5 71.5l6 3.499-6 3.501zM76.5 87.5l6 3.499-6 3.501zM76.5 102.5l6 3.5-6 3.5zM76.5 118.5l6 3.501-6 3.499zM76.5 133.5l6 3.501-6 3.499zM76.5 148.5l6 3.501-6 3.499zM76.5 163.5l6 3.5-6 3.5zM76.5 179.5l6 3.5-6 3.5zM76.5 194.5l6 3.5-6 3.5zM76.5 210.5l6 3.501-6 3.499zM76.5 225.5l6 3.499-6 3.501zM76.5 241.5l6 3.499-6 3.501zM76.5 255.5l6 3.5-6 3.5zM76.5 270.5l6 3.5-6 3.5zM76.5 286.5l6 3.499-6 3.501zM76.5 301.5l6 3.498-6 3.502zM76.5 317.5l6 3.502-6 3.498zM76.5 332.5l6 3.499-6 3.501zM76.5 347.5l6 3.499-6 3.501zM76.5 362.5l6 3.501-6 3.499zM76.5 378.5l6 3.501-6 3.499zM76.5 393.5l6 3.5-6 3.5zM62.5 4.5l5 3.001-5 2.999zM62.5 19.5l5 3.002-5 2.998zM62.5 35.5l5 2.997-5 3.003zM62.5 50.5l5 3-5 3zM62.5 64.5l5 3-5 3zM62.5 80.5l5 2.999-5 3.001zM62.5 95.5l5 3.001-5 2.999zM62.5 111.5l5 3.001-5 2.999zM62.5 126.5l5 3-5 3zM62.5 142.5l5 2.999-5 3.001zM62.5 156.5l5 2.999-5 3.001zM62.5 172.5l5 3.002-5 2.998zM62.5 187.5l5 2.999-5 3.001zM62.5 203.5l5 2.998-5 3.002zM62.5 218.5l5 3-5 3zM62.5 233.5l5 3.001-5 2.999zM62.5 249.5l5 2.999-5 3.001zM62.5 263.5l5 2.999-5 3.001zM62.5 279.5l5 2.999-5 3.001zM62.5 294.5l5 3.003-5 2.997zM62.5 310.5l5 3-5 3zM62.5 325.5l5 3-5 3zM62.5 341.5l5 3.001-5 2.999zM62.5 355.5l5 2.998-5 3.002zM62.5 370.5l5 2.999-5 3.001zM62.5 386.5l5 2.999-5 3.001zM62.5 401.5l5 3-5 3zM46.5 12.5l4 2.498-4 2.502zM46.5 27.5l4 2-4 2zM46.5 43.5l4 2-4 2zM46.5 58.5l4 2.5-4 2.5zM46.5 73.5l4 2.5-4 2.5zM46.5 88.5l4 1.999-4 2.001zM46.5 104.5l4 2.001-4 1.999zM46.5 119.5l4 2.5-4 2.5zM46.5 135.5l4 2.001-4 1.999zM46.5 150.5l4 2.001-4 1.999zM46.5 164.5l4 2.5-4 2.5zM46.5 180.5l4 2-4 2zM46.5 195.5l4 2-4 2zM46.5 211.5l4 2.501-4 2.499zM46.5 226.5l4 1.999-4 2.001zM46.5 242.5l4 2-4 2zM46.5 256.5l4 2.5-4 2.5zM46.5 272.5l4 2.5-4 2.5zM46.5 287.5l4 1.999-4 2.001zM46.5 303.5l4 1.999-4 2.001zM46.5 318.5l4 2.001-4 1.999zM46.5 334.5l4 1.999-4 2.001zM46.5 349.5l4 2.001-4 1.999zM46.5 363.5l4 2.502-4 2.498zM46.5 379.5l4 2.5-4 2.5zM46.5 394.5l4 2.001-4 1.999zM32.5 5.5l3 1.501-3 1.499zM32.5 20.5l3 1.502-3 1.498zM32.5 36.5l3 1.497-3 1.503zM32.5 51.5l3 1.499-3 1.501zM32.5 66.5l3 1.5-3 1.5zM32.5 81.5l3 1.498-3 1.502zM32.5 96.5l3 1.501-3 1.499zM32.5 112.5l3 1.501-3 1.499zM32.5 127.5l3 1.5-3 1.5zM32.5 143.5l3 1.501-3 1.499zM32.5 158.5l3 1.5-3 1.5zM32.5 173.5l3 1.502-3 1.498zM32.5 188.5l3 1.5-3 1.5zM32.5 204.5l3 1.5-3 1.5zM32.5 219.5l3 1.5-3 1.5zM32.5 235.5l3 1.499-3 1.501zM32.5 250.5l3 1.498-3 1.502zM32.5 264.5l3 1.499-3 1.501zM32.5 280.5l3 1.499-3 1.501zM32.5 295.5l3 1.501-3 1.499zM32.5 311.5l3 1.5-3 1.5zM32.5 326.5l3 1.501-3 1.499zM32.5 342.5l3 1.501-3 1.499zM32.5 356.5l3 1.498-3 1.502zM32.5 372.5l3 1.498-3 1.502zM32.5 387.5l3 1.499-3 1.501zM32.5 403.5l3 1.5-3 1.5zM15.5 12.5l4 1.998-4 2.002zM15.5 27.5l4 2-4 2zM15.5 43.5l4 2.001-4 1.999zM15.5 58.5l4 1.999-4 2.001zM15.5 74.5l4 2-4 2zM15.5 88.5l4 2-4 2zM15.5 104.5l4 2.001-4 1.999zM15.5 119.5l4 2.001-4 1.999zM15.5 135.5l4 2-4 2zM15.5 150.5l4 2.001-4 1.999zM15.5 166.5l4 1.999-4 2.001zM15.5 180.5l4 2-4 2zM15.5 195.5l4 2.001-4 1.999zM15.5 211.5l4 2.001-4 1.999zM15.5 226.5l4 1.999-4 2.001zM15.5 242.5l4 2-4 2zM15.5 257.5l4 1.999-4 2.001zM15.5 272.5l4 1.999-4 2.001zM15.5 287.5l4 1.998-4 2.002zM15.5 303.5l4 2-4 2zM15.5 318.5l4 2.001-4 1.999zM15.5 334.5l4 1.998-4 2.002zM15.5 349.5l4 2-4 2zM15.5 365.5l4 2.002-4 1.998zM15.5 379.5l4 2-4 2zM15.5 394.5l4 2.001-4 1.999zM.5 4.5v6l5-3zM.5 19.5v6l5-2.999zM.5 35.5v6l5-3.001zM.5 50.5v6l5-3zM.5 66.5v6l5-3.001zM.5 80.5v6l5-3.002zM.5 95.5v6l5-2.999zM.5 111.5v6l5-2.998zM.5 126.5v6l5-3zM.5 142.5v6l5-3zM.5 157.5v6l5-3zM.5 172.5v6l5-3zM.5 187.5v6l5-2.999zM.5 203.5v6l5-3zM.5 218.5v6l5-3.001zM.5 233.5v6l5-3zM.5 249.5v6l5-3.002zM.5 263.5v6l5-3.002zM.5 279.5v6l5-3.001zM.5 294.5v6l5-2.998zM.5 310.5v6l5-3zM.5 325.5v6l5-3zM.5 341.5v6l5-3.001zM.5 356.5v6l5-3.001zM.5 370.5v6l5-3.002zM.5 386.5v6l5-3zM.5 401.5v6l5-2.999z"/></g></svg>