<svg width="16" height="16" viewBox="0 0 16 16" xmlns="http://www.w3.org/2000/svg"><title>Artboard</title><g fill="context-fill" fill-opacity="context-fill-opacity" fill-rule="evenodd"><path d="M16 4a3 3 0 0 0-3-3H3a3 3 0 0 0-3 3v8a3 3 0 0 0 3 3h4.03v-.006a.994.994 0 0 0 0-1.987V13H3a1 1 0 0 1-1-1V6h12v1.952h.01c0 .017-.01.031-.01.048a1 1 0 0 0 2 0c0-.017-.009-.031-.01-.048H16V4zM2 5V4a1 1 0 0 1 1-1h10a1 1 0 0 1 1 1v1H2z"/><path d="M13.606 12.494c.262.29.632.55 1.115.78.203.031.398.11.568.241l.023.01-.004.003a1.254 1.254 0 0 1 .089 1.866 1.254 1.254 0 0 1-1.866-.089l-.005.006-.011-.025a1.243 1.243 0 0 1-.228-.51c-.248-.489-.527-.864-.84-1.124l-1.284 1.285a.843.843 0 0 1-1.191 0l-1.154-1.153a.842.842 0 0 1 0-1.192l3.774-3.774a.842.842 0 0 1 1.192 0l1.153 1.153c.33.33.33.863 0 1.192l-1.33 1.33-.001.001zm1.05 2.16a.35.35 0 1 0 0 .001v-.001z"/><path d="M6.993 9.974l2.981-2.981a1.053 1.053 0 0 1 1.49 0l1.226 1.226a1.053 1.053 0 0 1 0 1.489l-2.981 2.981a1.053 1.053 0 0 1-1.49 0l-1.226-1.226a1.053 1.053 0 0 1 0-1.49v.001zm.497.496a.351.351 0 0 0 0 .497l1.226 1.226a.35.35 0 0 0 .496 0l2.981-2.981a.351.351 0 0 0 0-.497L10.967 7.49a.351.351 0 0 0-.496 0L7.49 10.47z"/><path d="M12.188 7.717l-.973-.973a.702.702 0 0 0-.992 0l-3.477 3.477a.702.702 0 0 0-.002.994l1.153 1.153.035-.035c.372-.397-1.29-1.74-.02-1.7 1.27.039.749-.549 1.216-1.016.468-.468.842-.097 1.078-.499.237-.4-.32-.754.325-1.4.417-.416 1.128-.097 1.657-.001z"/></g></svg>