<svg width="37" height="35" xmlns="http://www.w3.org/2000/svg"><g fill="none" fill-rule="evenodd"><path d="M36.822 16.232c0 .96-.773 1.739-1.726 1.739a1.733 1.733 0 0 1-1.726-1.74v-4.057H3.452v15.66c0 .636.515 1.152 1.15 1.152H16.11c.953 0 1.726.778 1.726 1.739 0 .96-.773 1.739-1.726 1.739H2.3A2.301 2.301 0 0 1 0 30.162V2.302A2.301 2.301 0 0 1 2.301 0h32.22a2.301 2.301 0 0 1 2.3 2.301v13.93zM4.602 3.478a1.15 1.15 0 0 0-1.15 1.15v5.227H33.37V4.63a1.15 1.15 0 0 0-1.15-1.15H4.602z" fill="#3E3D40"/><g transform="rotate(-45 35.164 -4.875)"><rect stroke="#3E3D40" stroke-width="1.617" x="1.617" y=".808" width="12.933" height="7.288" rx="1.617"/><path d="M9.891 14.976c-.046.902.134 1.938.543 3.107.281.381.47.834.534 1.326l.025.053h-.018c.012.106.018.212.018.32 0 1.593-1.303 2.885-2.91 2.885-1.607 0-2.91-1.292-2.91-2.884 0-.109.006-.215.018-.32h-.018l.025-.06c.059-.442.218-.853.456-1.208.395-1.21.55-2.283.465-3.219h-4.18A1.94 1.94 0 0 1 0 13.036v-3.81a1.94 1.94 0 0 1 1.94-1.94h12.286a1.94 1.94 0 0 1 1.94 1.94v3.81a1.94 1.94 0 0 1-1.94 1.94H9.89zm5.466-10.16v-3.2C15.357.725 14.634 0 13.741 0H2.425C1.532 0 .808.724.808 1.617v3.788c.037.002.076.002.115 0 1.248-.036.73-4.963 2.731-2.817 2.002 2.147 2.11.329 3.633.329 1.523 0 1.528 1.223 2.564.953 1.036-.27.707-1.766 2.806-1.765 1.356 0 1.996 1.69 2.7 2.711zM8.083 20.238a.809.809 0 1 0-.001-1.618.809.809 0 0 0 0 1.618z" fill="#3E3D40"/><path d="M9.891 14.976c-.046.902.134 1.938.543 3.107.281.381.47.834.534 1.326l.025.053h-.018c.012.106.018.212.018.32 0 1.593-1.303 2.885-2.91 2.885-1.607 0-2.91-1.292-2.91-2.884 0-.109.006-.215.018-.32h-.018l.025-.06c.059-.442.218-.853.456-1.208.395-1.21.55-2.283.465-3.219h-4.18A1.94 1.94 0 0 1 0 13.036v-3.81a1.94 1.94 0 0 1 1.94-1.94h12.286a1.94 1.94 0 0 1 1.94 1.94v3.81a1.94 1.94 0 0 1-1.94 1.94H9.89zm5.466-10.16v-3.2C15.357.725 14.634 0 13.741 0H2.425C1.532 0 .808.724.808 1.617v3.788c.037.002.076.002.115 0 1.248-.036.73-4.963 2.731-2.817 2.002 2.147 2.11.329 3.633.329 1.523 0 1.528 1.223 2.564.953 1.036-.27.707-1.766 2.806-1.765 1.356 0 1.996 1.69 2.7 2.711zM8.083 20.238a.809.809 0 1 0-.001-1.618.809.809 0 0 0 0 1.618z" fill="#3E3D40"/></g></g></svg>