<svg width="192" height="128" xmlns="http://www.w3.org/2000/svg"><g fill="#000" fill-rule="nonzero"><g opacity=".05"><path d="M144 70.01l10.12 32.01L192 38z"/><path d="M154.12 102.02l-41.88 12.96 65.01 12.94L192 128zM112.24 87.17v27.81L144 70.01zM112.24-12.94L96 45.46 144 34zM112.24 114.98L96 173.38l48-11.46z"/><path d="M65.66 148.69l19.66-48.31 26.92 14.6zM65.66 20.69l19.66-48.31 26.92 14.6zM44.38 0l21.28 20.69-34.14 53.3zM96 45.46L58.4 70.01l7.26-49.32zM85.32 100.38L58.4 70.01l53.84 17.16z"/></g><g opacity=".1"><path d="M154.12 102.02l69.41-28.03L192 38zM177.25 0L192 38l44.38-38zM144 34v36.01L192 38zM144 34l-31.76-46.94L177.25 0zM112.24 87.17L96 45.46l48 24.55zM177.25 127.92l14.75 38 44.38-38zM144 161.92l-31.76-46.94 65.01 12.94zM-37.88 102.02l69.4-28.03L0 38zM-14.75 0L0 38 44.38 0zM-14.75 127.92l14.75 38 44.38-38z"/><path d="M144 70.01l-31.76 44.97 41.88-12.96zM58.4 70.01l-26.88 3.98 34.14-53.3z"/><path d="M31.52 73.99l17.07 29.66L0 128z"/><path d="M58.4 70.01l-9.81 33.64-17.07-29.66zM48.59 103.65l36.73-3.27-19.66 48.31zM48.59-24.35l36.73-3.27-19.66 48.31z"/></g></g></svg>