<svg width="100" height="100" xmlns="http://www.w3.org/2000/svg"><g fill="none" fill-rule="evenodd" opacity=".2"><path stroke="#161616" stroke-width="2" stroke-linejoin="round" d="M15.8 53.45l-4.65.75L9 50.05l3.3-3.3 4.15 2.15zm37-38.5l-4.65.75L46 11.55l3.3-3.3 4.15 2.15zM77.3 36.2l-3.8-2.75L74.95 29h4.7l1.45 4.45zm-32 35.25l-4.65.75-2.15-4.15 3.3-3.3 4.15 2.15zM61.5 45.7c1.25 0 2.25 1 2.25 2.25s-1 2.25-2.25 2.25-2.25-1-2.25-2.25c0-1.2 1-2.25 2.25-2.25zm-47 38c1.25 0 2.25 1 2.25 2.25s-1 2.25-2.25 2.25-2.25-1-2.25-2.25c0-1.2 1-2.25 2.25-2.25z"/><path fill="#161616" d="M37.65 40.55l1.25.75-3.7 4.3-1.4-.6zm52-33.5l1.25.75-3.7 4.3-1.4-.6zm-.5 81l1.25.75-3.7 4.3-1.4-.6zm-56.9-1.35l1.25-.7 1.95 5.3-1.2.95zm34-14.5l1.25-.75 1.95 5.3-1.2.95z"/><path d="M86.25 64.2c1.1 0 2 .9 2 2s-.9 2-2 2-2-.9-2-2 .9-2 2-2zm-67.5-47c1.1 0 2 .9 2 2s-.9 2-2 2-2-.9-2-2 .9-2 2-2z" stroke="#161616" stroke-width="2" stroke-linejoin="round"/></g></svg>