<svg width="100" height="100" viewBox="0 0 100 100" xmlns="http://www.w3.org/2000/svg"><title>bg-024</title><g fill="#FFF" fill-rule="nonzero" opacity=".2"><path d="M15.394 28.945l6.6-7.513 3.268 2.87-6.6 7.514zM49.102 62.311l6.6-7.513 3.268 2.87-6.6 7.514zM87.294 94.442l6.6-7.513 3.267 2.87-6.599 7.514zM7.43 63.828l6.598-7.513 3.269 2.87-6.6 7.514zM8.113 93.98l6.599-7.514 3.268 2.87-6.599 7.514zM31.047 34.206l3.076-3.076 7.071 7.072-3.076 3.075zM78.953 15.662l3.076-3.076 7.071 7.07-3.076 3.077zM75.597 81.641l3.076-3.075 7.07 7.07-3.075 3.077zM66.054 41.635l3.075-3.076L76.2 45.63l-3.075 3.076zM61.402 90.737l3.076-3.076 7.07 7.071-3.075 3.076zM21.904 78.7l3.076-3.077 7.07 7.071-3.075 3.076zM44.037 23.623l5-8.66 3.767 2.175-5 8.66zM77.871 59.74l5-8.661 3.767 2.175-5 8.66zM12.93 46.3l1.43-4.108 9.444 3.286-1.43 4.108zM4.976 77.565l1.43-4.108 9.444 3.286-1.429 4.108zM42.175 77.32l1.43-4.108 9.444 3.286-1.43 4.108zM86.732 70.21l1.43-4.11 9.444 3.287-1.429 4.108zM51.95 43.074l.667-9.977 4.34.29-.667 9.978zM55.834 6.688l.659-4.3 9.884 1.516-.659 4.3zM2.194 39.872l.667-9.978 4.34.29-.667 9.978zM33.799 63.124l.667-9.978 4.34.29-.667 9.978zM7.547 17.822l.667-9.977 4.34.29-.667 9.978zM64.75 78.122l.668-9.978 4.34.29-.668 9.978zM40.07 95.29l5-8.66 3.767 2.176-5 8.66zM25.884 11.858l.29-4.34 9.978.667-.29 4.34zM83.249 36.124l.29-4.34 9.978.667-.29 4.34zM63.606 26.198l.29-4.34 9.978.667-.29 4.34zM87.848 8.793l.29-4.34 9.978.667-.29 4.34z"/></g></svg>