<svg width="100" height="100" xmlns="http://www.w3.org/2000/svg"><path d="M15.394 28.945l6.6-7.513 3.268 2.87-6.6 7.514zm33.708 33.366l6.6-7.513 3.268 2.87-6.6 7.514zm38.192 32.131l6.6-7.513 3.267 2.87-6.599 7.514zM7.43 63.828l6.598-7.513 3.269 2.87-6.6 7.514zm.683 30.152l6.599-7.514 3.268 2.87-6.599 7.514zm22.934-59.774l3.076-3.076 7.071 7.072-3.076 3.075zm47.906-18.544l3.076-3.076 7.071 7.07-3.076 3.077zm-3.356 65.979l3.076-3.075 7.07 7.07-3.075 3.077zm-9.543-40.006l3.075-3.076L76.2 45.63l-3.075 3.076zm-4.652 49.102l3.076-3.076 7.07 7.071-3.075 3.076zM21.904 78.7l3.076-3.077 7.07 7.071-3.075 3.076zm22.133-55.077l5-8.66 3.767 2.175-5 8.66zM77.871 59.74l5-8.661 3.767 2.175-5 8.66zM12.93 46.3l1.43-4.108 9.444 3.286-1.43 4.108zM4.976 77.565l1.43-4.108 9.444 3.286-1.429 4.108zm37.199-.245l1.43-4.108 9.444 3.286-1.43 4.108zm44.557-7.11l1.43-4.11 9.444 3.287-1.429 4.108zM51.95 43.074l.667-9.977 4.34.29-.667 9.978zm3.884-36.386l.659-4.3 9.884 1.516-.659 4.3zM2.194 39.872l.667-9.978 4.34.29-.667 9.978zm31.605 23.252l.667-9.978 4.34.29-.667 9.978zM7.547 17.822l.667-9.977 4.34.29-.667 9.978zm57.203 60.3l.668-9.978 4.34.29-.668 9.978zM40.07 95.29l5-8.66 3.767 2.176-5 8.66zM25.884 11.858l.29-4.34 9.978.667-.29 4.34zm57.365 24.266l.29-4.34 9.978.667-.29 4.34zm-19.643-9.926l.29-4.34 9.978.667-.29 4.34zM87.848 8.793l.29-4.34 9.978.667-.29 4.34z" fill="#FFF" opacity=".2"/></svg>