<svg width="100" height="100" xmlns="http://www.w3.org/2000/svg"><g fill="#FFF" opacity=".15"><path d="M5.1 0h3.05c.6.35 1.25.6 1.85.8.65-.15 1.25-.45 1.9-.8h3.05c-1.45 1.3-3.1 2.25-4.75 2.6l-.2.05-.2-.05C8.15 2.25 6.55 1.3 5.1 0zm20 0h3.05c.6.35 1.25.6 1.85.8.65-.15 1.25-.45 1.9-.8h3.05c-1.45 1.3-3.1 2.25-4.75 2.6l-.2.05-.2-.05c-1.65-.35-3.25-1.3-4.7-2.6zm20 0h3.05c.6.35 1.25.6 1.85.8.65-.15 1.25-.45 1.9-.8h3.05c-1.45 1.3-3.1 2.25-4.75 2.6l-.2.05-.2-.05c-1.65-.35-3.25-1.3-4.7-2.6zm20 0h3.05c.6.35 1.25.6 1.85.8.65-.15 1.25-.45 1.9-.8h3.05c-1.45 1.3-3.1 2.25-4.75 2.6l-.2.05-.2-.05c-1.65-.35-3.25-1.3-4.7-2.6zm20 0h3.05c.6.35 1.25.6 1.85.8.65-.15 1.25-.45 1.9-.8h3.05c-1.45 1.3-3.1 2.25-4.75 2.6l-.2.05-.2-.05c-1.65-.35-3.25-1.3-4.7-2.6z" opacity=".574"/><path d="M0 4.6V2.75C1.1 2.4 2.2 1.35 2.9 0h2C3.9 2.3 2.1 4.15.15 4.55L0 4.6zM0 19v-1.85c4.65-1.2 9.1-7.85 9.1-14.2v-.7c.25.1.45.15.7.2h.2l.2-.05c.25-.05.5-.1.7-.2v.65c0 6.35 4.45 13 9.1 14.2 4.65-1.2 9.1-7.85 9.1-14.2v-.7c.25.1.45.15.7.2l.2.1.2-.05c.25-.05.5-.1.7-.2v.65c0 6.35 4.45 13 9.1 14.2 4.65-1.2 9.1-7.85 9.1-14.2v-.7c.25.1.45.15.7.2l.2.05.2-.05c.25-.05.5-.1.7-.2v.65c0 6.35 4.45 13 9.1 14.2 4.65-1.2 9.1-7.85 9.1-14.2v-.7c.25.1.45.15.7.2l.2.05.2-.05c.25-.05.5-.1.7-.2v.65c0 6.35 4.45 13 9.1 14.2 4.65-1.2 9.1-7.85 9.1-14.2v-.7c.25.1.45.15.7.2l.2.05.2-.05c.25-.05.5-.1.7-.2v.65c0 6.35 4.45 13 9.1 14.2V19l-.2-.05C95.65 18 91.7 13.55 90 8.4c-1.7 5.2-5.6 9.65-9.8 10.6H80l-.2-.05C75.65 18 71.7 13.55 70 8.4c-1.7 5.2-5.6 9.65-9.8 10.6H60l-.2-.05C55.65 18 51.7 13.55 50 8.4c-1.7 5.2-5.6 9.6-9.8 10.55L40 19l-.2-.05c-4.15-.95-8.1-5.4-9.8-10.6-1.7 5.25-5.6 9.65-9.8 10.6L20 19l-.2-.05c-4.15-.95-8.1-5.4-9.8-10.6C8.3 13.6 4.4 18 .2 18.95L0 19zm0-5.9v-1.25c3.55-.9 6.9-5.6 7.35-10.4.35.2.75.4 1.15.55C7.85 7.2 4.15 12.15.15 13.05L0 13.1zM15.05 0h2c.75 1.35 1.8 2.4 2.9 2.75 1.1-.35 2.2-1.4 2.9-2.75h2c-1 2.3-2.8 4.15-4.75 4.55l-.1.05-.2-.05c-1.95-.4-3.75-2.25-4.75-4.55zm20 0h2c.75 1.35 1.8 2.4 2.9 2.75 1.1-.35 2.2-1.4 2.9-2.75h2c-1 2.3-2.8 4.15-4.75 4.55l-.1.05-.2-.05c-1.95-.4-3.75-2.25-4.75-4.55zm20 0h2c.75 1.35 1.8 2.4 2.9 2.75 1.1-.35 2.2-1.4 2.9-2.75h2c-1 2.3-2.8 4.15-4.75 4.55l-.2.05-.2-.05c-1.85-.4-3.65-2.25-4.65-4.55zm20 0h2c.75 1.35 1.8 2.4 2.9 2.75 1.1-.35 2.2-1.4 2.9-2.75h2c-1 2.3-2.8 4.15-4.75 4.55l-.2.05-.2-.05c-1.85-.4-3.65-2.25-4.65-4.55zM100 13.1l-.15-.05c-4-.9-7.7-5.85-8.35-11.05.4-.15.8-.35 1.15-.55.45 4.8 3.85 9.5 7.35 10.4v1.25zM95.05 0h2c.75 1.35 1.8 2.4 2.9 2.75v1.9l-.2-.05c-1.9-.45-3.7-2.3-4.7-4.6zM11.5 2c.4-.15.8-.35 1.15-.55.45 4.8 3.85 9.5 7.35 10.4 3.55-.9 6.9-5.6 7.35-10.4.35.2.75.4 1.15.55-.65 5.2-4.35 10.15-8.35 11.05l-.15.05-.15-.05C15.9 12.15 12.2 7.2 11.5 2zm20 0c.4-.15.8-.35 1.15-.55.45 4.8 3.85 9.5 7.35 10.4 3.55-.9 6.9-5.6 7.35-10.4.35.2.75.4 1.15.55-.65 5.2-4.35 10.15-8.35 11.05l-.15.05-.15-.05C35.9 12.15 32.2 7.2 31.5 2zm20 0c.4-.15.8-.35 1.15-.55.45 4.8 3.85 9.5 7.35 10.4 3.55-.9 6.9-5.6 7.35-10.4.4.2.75.4 1.15.55-.65 5.2-4.35 10.15-8.35 11.05l-.15.05-.15-.05C55.9 12.15 52.2 7.2 51.5 2zm20 0c.4-.15.8-.35 1.15-.55.45 4.8 3.85 9.5 7.35 10.4 3.55-.9 6.9-5.6 7.35-10.4.4.2.75.4 1.15.55-.65 5.2-4.35 10.15-8.35 11.05l-.15.05-.15-.05C75.9 12.15 72.2 7.2 71.5 2z" opacity=".574"/><path d="M0 24.8v-6.05l.2-.05c.25-.05.45-.1.7-.2v.8c0 6.35 4.45 13 9.1 14.2 4.65-1.2 9.1-7.8 9.1-14.15v-.8c.25.1.45.15.7.2l.2.05.2-.05c.25-.05.45-.1.7-.2v.8c0 6.3 4.45 12.95 9.1 14.15 4.65-1.2 9.1-7.8 9.1-14.15v-.8c.25.1.45.15.7.2l.2.05.2-.05c.25-.05.45-.1.7-.2v.8c0 6.3 4.45 12.95 9.1 14.15 4.65-1.2 9.1-7.8 9.1-14.15v-.8c.25.1.45.15.7.2l.2.05.2-.05c.25-.05.45-.1.7-.2v.8c0 6.3 4.45 12.95 9.1 14.15 4.65-1.2 9.1-7.8 9.1-14.15v-.8c.25.1.45.15.7.2l.2.05.2-.05c.25-.05.45-.1.7-.2v.8c0 6.3 4.45 12.95 9.1 14.15 4.65-1.2 9.1-7.8 9.1-14.15v-.8c.25.1.45.15.7.2l.2.05v6.05c-1.7 5.2-5.6 9.6-9.8 10.5l-.2.05-.2-.05C85.65 34.4 81.7 30 80 24.8c-1.7 5.2-5.6 9.6-9.8 10.55l-.2.05-.2-.05C65.65 34.4 61.7 30 60 24.8c-1.7 5.2-5.6 9.6-9.8 10.55l-.2.05-.2-.05c-4.15-1-8.1-5.4-9.8-10.55-1.7 5.2-5.6 9.6-9.8 10.55H30l-.2-.05c-4.15-.95-8.1-5.35-9.8-10.5-1.7 5.2-5.6 9.6-9.8 10.55H10l-.2-.05c-4.15-.95-8.1-5.35-9.8-10.5zm5-8.7c.5-.45.95-.95 1.4-1.45.6 2.1 2.1 3.9 3.6 4.4 1.55-.45 3-2.3 3.6-4.4.45.55.95 1 1.4 1.45-.95 2.4-2.8 4.35-4.85 4.8H10l-.2-.05c-2-.45-3.85-2.4-4.8-4.75zm20 0c.5-.45.95-.95 1.4-1.45.6 2.1 2.1 3.9 3.6 4.4 1.55-.45 3-2.3 3.6-4.4.45.55.95 1 1.4 1.45-.95 2.4-2.8 4.35-4.85 4.8H30l-.2-.05c-2-.45-3.85-2.4-4.8-4.75zm20 0c.5-.45.95-.95 1.4-1.45.6 2.1 2.1 3.9 3.6 4.4 1.55-.45 3-2.3 3.6-4.4.45.55.95 1 1.4 1.45-.95 2.4-2.8 4.35-4.85 4.8l-.2.05-.2-.05c-1.95-.5-3.8-2.45-4.75-4.8zm20 0c.5-.45.95-.95 1.4-1.45.6 2.1 2.1 3.9 3.6 4.4 1.55-.45 3-2.3 3.6-4.4.45.55.95 1 1.4 1.45-.95 2.4-2.8 4.35-4.85 4.8l-.2.05-.2-.05c-1.95-.5-3.8-2.45-4.75-4.8zm20 0c.5-.45.95-.95 1.4-1.45.6 2.1 2.1 3.9 3.6 4.4 1.55-.45 3-2.3 3.6-4.4.45.55.95 1 1.4 1.45-.95 2.4-2.8 4.35-4.85 4.8l-.2.05-.2-.05c-1.95-.5-3.8-2.45-4.75-4.8zM1.5 18.3c.4-.15.8-.35 1.15-.55.4 4.8 3.8 9.6 7.35 10.45 3.55-.9 6.95-5.65 7.35-10.5.4.2.75.4 1.15.55-.6 5.25-4.3 10.25-8.4 11.15l-.1.1-.15-.05c-4-.9-7.75-5.9-8.35-11.15zm20 0c.4-.15.8-.35 1.15-.55.4 4.8 3.8 9.6 7.35 10.45 3.55-.9 6.95-5.65 7.35-10.5.4.2.75.4 1.15.55-.6 5.25-4.3 10.25-8.4 11.15l-.1.1-.15-.05c-4-.9-7.75-5.9-8.35-11.15zm20 0c.4-.15.8-.35 1.15-.55.4 4.8 3.8 9.6 7.35 10.45 3.55-.9 6.95-5.65 7.35-10.5.4.2.75.4 1.15.55-.6 5.25-4.3 10.25-8.4 11.15l-.1.1-.15-.05c-4-.9-7.75-5.9-8.35-11.15zm20 0c.4-.15.8-.35 1.15-.55.4 4.8 3.8 9.6 7.35 10.45 3.55-.9 6.95-5.65 7.35-10.5.4.2.75.4 1.15.55-.6 5.25-4.3 10.25-8.4 11.15l-.1.1-.15-.05c-4-.9-7.75-5.9-8.35-11.15zm20 0c.4-.15.8-.35 1.15-.55.4 4.8 3.8 9.6 7.35 10.45 3.55-.9 6.95-5.65 7.35-10.5.4.2.75.4 1.15.55-.6 5.25-4.3 10.25-8.4 11.15l-.1.1-.15-.05c-4-.9-7.75-5.9-8.35-11.15z" opacity=".574"/><path d="M0 37.6v-2c1.55-.5 3-2.45 3.6-4.7.45.55.95 1.1 1.4 1.55-.95 2.5-2.8 4.6-4.85 5.05l-.15.1zm100 0l-.2-.05c-2-.5-3.85-2.55-4.8-5.05.5-.45.95-1 1.4-1.55.6 2.2 2.1 4.15 3.6 4.65v2zM0 46.7v-1.3c3.55-.95 6.95-6 7.35-11.1.4.25.75.4 1.15.6-.6 5.5-4.3 10.8-8.35 11.75L0 46.7zm100 0l-.15-.05c-4-.95-7.75-6.3-8.4-11.8.4-.15.8-.35 1.15-.6.4 5.1 3.8 10.15 7.35 11.1v1.35h.05zM0 52.9v-2c4.65-1.25 9.1-8.3 9.1-15.05V35c.25.1.45.15.7.2l.2.05.2-.05c.25-.05.45-.1.7-.2v.85c0 6.7 4.45 13.75 9.1 15.05 4.65-1.25 9.1-8.3 9.1-15.05V35c.25.1.45.15.7.2l.2.05.2-.05c.25-.05.45-.1.7-.2v.85c0 6.7 4.45 13.75 9.1 15.05 4.65-1.25 9.1-8.3 9.1-15.05V35c.25.1.45.15.7.2l.2.05.2-.05c.25-.05.45-.1.7-.2v.85c0 6.7 4.45 13.75 9.1 15.05 4.65-1.25 9.1-8.3 9.1-15.05V35c.25.1.45.15.7.2l.2.05.2-.05c.25-.05.45-.1.7-.2v.85c0 6.7 4.45 13.75 9.1 15.05 4.65-1.25 9.1-8.3 9.1-15.05V35c.25.1.45.15.7.2l.2.05.2-.05c.25-.05.45-.1.7-.2v.85c0 6.7 4.45 13.75 9.1 15.05v2l-.2-.05c-4.15-1-8.1-5.7-9.8-11.2-1.7 5.5-5.6 10.2-9.8 11.2l-.2.05-.2-.05c-4.15-1-8.1-5.7-9.8-11.2-1.7 5.5-5.6 10.2-9.8 11.2l-.2.05-.2-.05c-4.15-1-8.1-5.7-9.8-11.2-1.7 5.5-5.6 10.2-9.8 11.2l-.2.05-.2-.05c-4.15-1-8.1-5.7-9.8-11.2-1.7 5.5-5.6 10.2-9.8 11.2l-.2.05-.2-.05c-4.15-1-8.1-5.7-9.8-11.2-1.7 5.5-5.6 10.2-9.8 11.2l-.2.05zm15-20.4c.5-.45.95-1 1.4-1.55.6 2.2 2.1 4.15 3.6 4.65 1.55-.5 3-2.45 3.6-4.7.45.55.95 1.1 1.4 1.55-.95 2.5-2.8 4.6-4.85 5.05l-.15.1-.2-.05c-2-.5-3.85-2.55-4.8-5.05zm20 0c.5-.45.95-1 1.4-1.55.6 2.2 2.1 4.15 3.6 4.65 1.55-.5 3-2.45 3.6-4.7.45.55.95 1.1 1.4 1.55-.95 2.5-2.8 4.6-4.85 5.05l-.15.1-.2-.05c-2-.5-3.85-2.55-4.8-5.05zm20 0c.5-.45.95-1 1.4-1.55.6 2.2 2.1 4.15 3.6 4.65 1.55-.5 3-2.45 3.6-4.7.45.55.95 1.1 1.4 1.55-.95 2.5-2.8 4.6-4.85 5.05l-.2.05-.2-.05c-1.95-.45-3.8-2.5-4.75-5zm20 0c.5-.45.95-1 1.4-1.55.6 2.2 2.1 4.15 3.6 4.65 1.55-.5 3-2.45 3.6-4.7.45.55.95 1.1 1.4 1.55-.95 2.5-2.8 4.6-4.85 5.05l-.2.05-.2-.05c-1.95-.45-3.8-2.5-4.75-5zm-63.5 2.35c.4-.15.8-.35 1.15-.6.4 5.1 3.8 10.15 7.35 11.1 3.55-.95 6.95-6 7.35-11.1.4.25.75.4 1.15.6-.6 5.55-4.3 10.85-8.4 11.8l-.1.05-.15-.05c-4-.95-7.75-6.3-8.35-11.8zm20 0c.4-.15.8-.35 1.15-.6.4 5.1 3.8 10.15 7.35 11.1 3.55-.95 6.95-6 7.35-11.1.4.25.75.4 1.15.6-.6 5.55-4.3 10.85-8.4 11.8l-.1.05-.15-.05c-4-.95-7.75-6.3-8.35-11.8zm20 0c.4-.15.8-.35 1.15-.6.4 5.1 3.8 10.15 7.35 11.1 3.55-.95 6.95-6 7.35-11.1.4.25.75.4 1.15.6-.6 5.55-4.3 10.85-8.4 11.8l-.15.05-.15-.05c-3.95-.95-7.7-6.3-8.3-11.8zm20 0c.4-.15.8-.35 1.15-.6.4 5.1 3.8 10.15 7.35 11.1 3.55-.95 6.95-6 7.35-11.1.4.25.75.4 1.15.6-.6 5.55-4.3 10.85-8.4 11.8l-.15.05-.15-.05c-3.95-.95-7.7-6.3-8.3-11.8z" opacity=".574"/><path d="M0 59.1v-6.5l.2-.05c.25-.05.45-.15.7-.2v.85C.9 60 5.35 67.15 10 68.45c4.65-1.3 9.1-8.4 9.1-15.25v-.85c.25.1.45.15.7.2l.2.05.2-.05c.25-.05.45-.15.7-.2v.85c0 6.8 4.45 13.95 9.1 15.25 4.65-1.3 9.1-8.4 9.1-15.25v-.85c.25.1.45.15.7.2l.2.05.2-.05c.25-.05.45-.15.7-.2v.85c0 6.8 4.45 13.95 9.1 15.25 4.65-1.3 9.1-8.4 9.1-15.25v-.85c.25.1.45.15.7.2l.2.05.2-.05c.25-.05.45-.15.7-.2v.85c0 6.8 4.45 13.95 9.1 15.25 4.65-1.3 9.1-8.4 9.1-15.25v-.85c.25.1.45.15.7.2l.2.05.2-.05c.25-.05.45-.15.7-.2v.85c0 6.8 4.45 13.95 9.1 15.25 4.65-1.3 9.1-8.4 9.1-15.25v-.85c.25.1.45.15.7.2l.2.05v6.5c-1.7 5.6-5.6 10.3-9.8 11.35l-.2.05-.2-.05c-4.15-1-8.1-5.8-9.8-11.35-1.7 5.6-5.6 10.35-9.8 11.35l-.2.05-.2-.05c-4.15-1-8.1-5.8-9.8-11.35-1.7 5.6-5.6 10.35-9.8 11.35l-.2.05-.2-.05c-4.15-1-8.1-5.8-9.8-11.35-1.7 5.6-5.6 10.35-9.8 11.35l-.2.05-.2-.05c-4.15-1-8.1-5.8-9.8-11.35-1.7 5.6-5.6 10.35-9.8 11.35l-.2.05-.2-.05C5.65 69.4 1.7 64.65 0 59.1zm5-9.35c.5-.5.95-1 1.4-1.55.6 2.25 2.1 4.25 3.6 4.7 1.55-.5 3-2.5 3.6-4.75.45.55.95 1.1 1.4 1.55-.95 2.55-2.8 4.65-4.85 5.15l-.2.05-.2-.05c-1.95-.5-3.8-2.55-4.75-5.1zm20 0c.5-.5.95-1 1.4-1.55.6 2.25 2.1 4.25 3.6 4.7 1.55-.5 3-2.5 3.6-4.75.45.55.95 1.1 1.4 1.55-.95 2.55-2.8 4.65-4.85 5.15l-.2.05-.2-.05c-1.95-.5-3.8-2.55-4.75-5.1zm20 0c.5-.5.95-1 1.4-1.55.6 2.25 2.1 4.25 3.6 4.7 1.55-.5 3-2.5 3.6-4.75.45.55.95 1.1 1.4 1.55-.95 2.55-2.8 4.65-4.85 5.15l-.2.05-.2-.05c-1.95-.5-3.8-2.55-4.75-5.1zm20 0c.5-.5.95-1 1.4-1.55.6 2.25 2.1 4.25 3.6 4.7 1.55-.5 3-2.5 3.6-4.75.45.55.95 1.1 1.4 1.55-.95 2.55-2.8 4.65-4.85 5.15l-.2.05-.2-.05c-1.95-.5-3.8-2.55-4.75-5.1zm20 0c.5-.5.95-1 1.4-1.55.6 2.25 2.1 4.25 3.6 4.7 1.55-.5 3-2.5 3.6-4.75.45.55.95 1.1 1.4 1.55-.95 2.55-2.8 4.65-4.85 5.15l-.2.05-.2-.05c-1.95-.5-3.8-2.55-4.75-5.1zm-83.5 2.4c.4-.15.8-.35 1.15-.6.4 5.2 3.8 10.3 7.35 11.3 3.55-.95 6.95-6.1 7.35-11.3.4.25.75.45 1.15.6-.6 5.65-4.3 11.05-8.4 12l-.15.05-.15-.05c-3.95-1-7.7-6.4-8.3-12zm20 0c.4-.15.8-.35 1.15-.6.4 5.2 3.8 10.3 7.35 11.3 3.55-.95 6.95-6.1 7.35-11.3.4.25.75.45 1.15.6-.6 5.65-4.3 11.05-8.4 12l-.15.05-.15-.05c-3.95-1-7.7-6.4-8.3-12zm20 0c.4-.15.8-.35 1.15-.6.4 5.2 3.8 10.3 7.35 11.3 3.55-.95 6.95-6.1 7.35-11.3.4.25.75.45 1.15.6-.6 5.65-4.3 11.05-8.4 12l-.15.05-.15-.05c-3.95-1-7.7-6.4-8.3-12zm20 0c.4-.15.8-.35 1.15-.6.4 5.2 3.8 10.3 7.35 11.3 3.55-.95 6.95-6.1 7.35-11.3.4.25.75.45 1.15.6-.6 5.65-4.3 11.05-8.4 12l-.15.05-.15-.05c-3.95-1-7.7-6.4-8.3-12zm20 0c.4-.15.8-.35 1.15-.6.4 5.2 3.8 10.3 7.35 11.3 3.55-.95 6.95-6.1 7.35-11.3.4.25.75.45 1.15.6-.6 5.65-4.3 11.05-8.4 12l-.15.05-.15-.05c-3.95-1-7.7-6.4-8.3-12z" opacity=".574"/><path d="M0 72.1v-2c1.55-.5 3-2.45 3.6-4.7.45.55.95 1.1 1.4 1.55-.95 2.5-2.8 4.6-4.85 5.05l-.15.1zm100 0l-.2-.05c-2-.5-3.85-2.55-4.8-5.05.5-.45.95-1 1.4-1.55.6 2.2 2.1 4.15 3.6 4.65v2zM0 81.25v-1.3c3.55-.95 6.95-6 7.35-11.1.4.25.75.4 1.15.6C7.9 75 4.2 80.3.1 81.25H0zm100 0l-.15-.05c-4-.95-7.75-6.3-8.4-11.8.4-.15.8-.35 1.15-.6.4 5.1 3.8 10.15 7.35 11.1v1.35h.05zM0 87.45v-2c4.65-1.25 9.1-8.3 9.1-15.05v-.85c.25.1.45.15.7.2l.2.05.2-.05c.25-.05.45-.1.7-.2v.85c0 6.7 4.45 13.75 9.1 15.05 4.65-1.25 9.1-8.3 9.1-15.05v-.85c.25.1.45.15.7.2l.2.05.2-.05c.25-.05.45-.1.7-.2v.85c0 6.7 4.45 13.75 9.1 15.05 4.65-1.25 9.1-8.3 9.1-15.05v-.85c.25.1.45.15.7.2l.2.05.2-.05c.25-.05.45-.1.7-.2v.85c0 6.7 4.45 13.75 9.1 15.05 4.65-1.25 9.1-8.3 9.1-15.05v-.85c.25.1.45.15.7.2l.2.05.2-.05c.25-.05.45-.1.7-.2v.85c0 6.7 4.45 13.75 9.1 15.05 4.65-1.25 9.1-8.3 9.1-15.05v-.85c.25.1.45.15.7.2l.2.05.2-.05c.25-.05.45-.1.7-.2v.85c0 6.7 4.45 13.75 9.1 15.05v2l-.2-.05c-4.15-1-8.1-5.7-9.8-11.2-1.7 5.5-5.6 10.2-9.8 11.2l-.2.05-.2-.05c-4.15-1-8.1-5.7-9.8-11.2-1.7 5.5-5.6 10.2-9.8 11.2l-.2.05-.2-.05c-4.15-1-8.1-5.7-9.8-11.2-1.7 5.5-5.6 10.2-9.8 11.2l-.2.05-.2-.05c-4.15-1-8.1-5.7-9.8-11.2-1.7 5.5-5.6 10.2-9.8 11.2l-.2.05-.2-.05c-4.15-1-8.1-5.7-9.8-11.2C8.3 81.7 4.4 86.4.2 87.4l-.2.05zm15-20.4c.5-.45.95-1 1.4-1.55.6 2.2 2.1 4.15 3.6 4.65 1.55-.5 3-2.45 3.6-4.7.45.55.95 1.1 1.4 1.55-.95 2.5-2.8 4.6-4.85 5.05l-.2.05-.2-.05c-1.95-.45-3.8-2.5-4.75-5zm20 0c.5-.45.95-1 1.4-1.55.6 2.2 2.1 4.15 3.6 4.65 1.55-.5 3-2.45 3.6-4.7.45.55.95 1.1 1.4 1.55-.95 2.5-2.8 4.6-4.85 5.05l-.2.05-.2-.05c-1.95-.45-3.8-2.5-4.75-5zm20 0c.5-.45.95-1 1.4-1.55.6 2.2 2.1 4.15 3.6 4.65 1.55-.5 3-2.45 3.6-4.7.45.55.95 1.1 1.4 1.55-.95 2.5-2.8 4.6-4.85 5.05l-.2.05-.2-.05c-1.95-.45-3.8-2.5-4.75-5zm20 0c.5-.45.95-1 1.4-1.55.6 2.2 2.1 4.15 3.6 4.65 1.55-.5 3-2.45 3.6-4.7.45.55.95 1.1 1.4 1.55-.95 2.5-2.8 4.6-4.85 5.05l-.2.05-.2-.05c-1.95-.45-3.8-2.5-4.75-5zM11.5 69.4c.4-.15.8-.35 1.15-.6.4 5.1 3.8 10.15 7.35 11.1 3.55-.95 6.95-6 7.35-11.1.4.25.75.4 1.15.6-.6 5.55-4.3 10.85-8.4 11.8l-.15.05-.15-.05c-3.95-.95-7.7-6.3-8.3-11.8zm20 0c.4-.15.8-.35 1.15-.6.4 5.1 3.8 10.15 7.35 11.1 3.55-.95 6.95-6 7.35-11.1.4.25.75.4 1.15.6-.6 5.55-4.3 10.85-8.4 11.8l-.15.05-.15-.05c-3.95-.95-7.7-6.3-8.3-11.8zm20 0c.4-.15.8-.35 1.15-.6.4 5.1 3.8 10.15 7.35 11.1 3.55-.95 6.95-6 7.35-11.1.4.25.75.4 1.15.6-.6 5.55-4.3 10.85-8.4 11.8l-.15.05-.15-.05c-3.95-.95-7.7-6.3-8.3-11.8zm20 0c.4-.15.8-.35 1.15-.6.4 5.1 3.8 10.15 7.35 11.1 3.55-.95 6.95-6 7.35-11.1.4.25.75.4 1.15.6-.6 5.55-4.3 10.85-8.4 11.8l-.15.05-.15-.05c-3.95-.95-7.7-6.3-8.3-11.8z" opacity=".574"/><path d="M0 91.9v-6.15l.2-.05c.25-.05.45-.1.7-.2v.8c0 5.6 3.35 11.45 7.3 13.65H5.1C2.9 98 1.05 95.1 0 91.9zm14.95 8.1h-3.1c3.95-2.25 7.25-8.05 7.25-13.65v-.8c.25.1.45.15.7.2l.2.05.2-.05c.25-.05.45-.1.7-.2v.8c0 5.6 3.35 11.45 7.3 13.65h-3.1c-2.2-2-4.05-4.95-5.1-8.1-1 3.2-2.85 6.1-5.05 8.1zm20 0h-3.1c3.95-2.25 7.25-8.05 7.25-13.65v-.8c.25.1.45.15.7.2l.2.05.2-.05c.25-.05.45-.1.7-.2v.8c0 5.6 3.35 11.45 7.3 13.65h-3.1c-2.2-2-4.05-4.95-5.1-8.1-1 3.2-2.85 6.1-5.05 8.1zm20 0h-3.1c3.95-2.25 7.25-8.05 7.25-13.65v-.8c.25.1.45.15.7.2l.2.05.2-.05c.25-.05.45-.1.7-.2v.8c0 5.6 3.35 11.45 7.3 13.65h-3.1c-2.2-2-4.05-4.95-5.1-8.1-1 3.2-2.85 6.1-5.05 8.1zm20 0h-3.1c3.95-2.25 7.25-8.05 7.25-13.65v-.8c.25.1.45.15.7.2l.2.05.2-.05c.25-.05.45-.1.7-.2v.8c0 5.6 3.35 11.45 7.3 13.65h-3.1c-2.2-2-4.05-4.95-5.1-8.1-1 3.2-2.85 6.1-5.05 8.1zm20 0h-3.1c3.95-2.25 7.25-8.05 7.25-13.65v-.8c.25.1.45.15.7.2l.2.05v6.15C98.95 95.1 97.15 98 94.95 100zM5 83c.5-.45.95-.95 1.4-1.5.6 2.15 2.1 4 3.6 4.45 1.55-.45 3-2.35 3.6-4.5.45.55.95 1.05 1.4 1.5-.95 2.4-2.8 4.4-4.85 4.85l-.2.05-.2-.05C7.8 87.35 5.95 85.4 5 83zm20 0c.5-.45.95-.95 1.4-1.5.6 2.15 2.1 4 3.6 4.45 1.55-.45 3-2.35 3.6-4.5.45.55.95 1.05 1.4 1.5-.95 2.4-2.8 4.4-4.85 4.85l-.2.05-.2-.05c-1.95-.45-3.8-2.4-4.75-4.8zm20 0c.5-.45.95-.95 1.4-1.5.6 2.15 2.1 4 3.6 4.45 1.55-.45 3-2.35 3.6-4.5.45.55.95 1.05 1.4 1.5-.95 2.4-2.8 4.4-4.85 4.85l-.2.05-.2-.05c-1.95-.45-3.8-2.4-4.75-4.8zm20 0c.5-.45.95-.95 1.4-1.5.6 2.15 2.1 4 3.6 4.45 1.55-.45 3-2.35 3.6-4.5.45.55.95 1.05 1.4 1.5-.95 2.4-2.8 4.4-4.85 4.85l-.2.05-.2-.05c-1.95-.45-3.8-2.4-4.75-4.8zm20 0c.5-.45.95-.95 1.4-1.5.6 2.15 2.1 4 3.6 4.45 1.55-.45 3-2.35 3.6-4.5.45.55.95 1.05 1.4 1.5-.95 2.4-2.8 4.4-4.85 4.85l-.2.05-.2-.05c-1.95-.45-3.8-2.4-4.75-4.8zM1.5 85.25c.4-.15.8-.35 1.15-.55.4 4.9 3.8 9.75 7.35 10.65 3.55-.9 6.95-5.75 7.35-10.7.4.2.75.4 1.15.55-.6 5.35-4.3 10.45-8.4 11.35l-.15.05-.15-.05c-3.95-.9-7.7-6-8.3-11.3zm20 0c.4-.15.8-.35 1.15-.55.4 4.9 3.8 9.75 7.35 10.65 3.55-.9 6.95-5.75 7.35-10.7.4.2.75.4 1.15.55-.6 5.35-4.3 10.45-8.4 11.35l-.15.05-.15-.05c-3.95-.9-7.7-6-8.3-11.3zm20 0c.4-.15.8-.35 1.15-.55.4 4.9 3.8 9.75 7.35 10.65 3.55-.9 6.95-5.75 7.35-10.7.4.2.75.4 1.15.55-.6 5.35-4.3 10.45-8.4 11.35l-.15.05-.15-.05c-3.95-.9-7.7-6-8.3-11.3zm20 0c.4-.15.8-.35 1.15-.55.4 4.9 3.8 9.75 7.35 10.65 3.55-.9 6.95-5.75 7.35-10.7.4.2.75.4 1.15.55-.6 5.35-4.3 10.45-8.4 11.35l-.15.05-.15-.05c-3.95-.9-7.7-6-8.3-11.3zm20 0c.4-.15.8-.35 1.15-.55.4 4.9 3.8 9.75 7.35 10.65 3.55-.9 6.95-5.75 7.35-10.7.4.2.75.4 1.15.55-.6 5.35-4.3 10.45-8.4 11.35l-.15.05-.15-.05c-3.95-.9-7.7-6-8.3-11.3z" opacity=".574"/><path d="M4.95 100H2.9c.3-.55.55-1.2.7-1.8.45.55.95 1.1 1.4 1.55 0 .1-.05.15-.05.25zm10.15 0c-.05-.1-.05-.15-.1-.25.5-.45.95-1 1.4-1.55.15.65.4 1.25.7 1.8h-2zm9.85 0H22.9c.3-.55.55-1.2.7-1.8.45.55.95 1.1 1.4 1.55 0 .1-.05.15-.05.25zm10.15 0c-.05-.1-.05-.15-.1-.25.5-.45.95-1 1.4-1.55.15.65.4 1.25.7 1.8h-2zm9.85 0H42.9c.3-.55.55-1.2.7-1.8.45.55.95 1.1 1.4 1.55 0 .1-.05.15-.05.25zm10.15 0c-.05-.1-.05-.15-.1-.25.5-.45.95-1 1.4-1.55.15.65.4 1.25.7 1.8h-2zm9.85 0H62.9c.3-.55.55-1.2.7-1.8.45.55.95 1.1 1.4 1.55 0 .1-.05.15-.05.25zm10.15 0c-.05-.1-.05-.15-.1-.25.5-.45.95-1 1.4-1.55.15.65.4 1.25.7 1.8h-2zm9.85 0H82.9c.3-.55.55-1.2.7-1.8.45.55.95 1.1 1.4 1.55 0 .1-.05.15-.05.25zm10.15 0c-.05-.1-.05-.15-.1-.25.5-.45.95-1 1.4-1.55.15.65.4 1.25.7 1.8h-2z" opacity=".574"/></g></svg>