<svg width="100" height="100" viewBox="0 0 100 100" xmlns="http://www.w3.org/2000/svg"><title>bg-029</title><g fill-rule="nonzero" fill="none" opacity=".2"><path fill="#A0A0A0" d="M12 75l12.5-9.5v-31L12 25zM37 75l12.5-9.5v-31L37 25zM62 75l12.5-9.5v-31L62 25zM87 75l12.5-9.5v-31L87 25zM12 25l12.5-9.5v-31L12-25zM37 25l12.5-9.5v-31L37-25zM62 25l12.5-9.5v-31L62-25zM87 25l12.5-9.5v-31L87-25z"/><path fill="#E8E8E8" d="M12 75L-.5 65.5v-31L12 25zM37 75l-12.5-9.5v-31L37 25zM62 75l-12.5-9.5v-31L62 25zM87 75l-12.5-9.5v-31L87 25zM12 25L-.5 15.5v-31L12-25zM37 25l-12.5-9.5v-31L37-25zM62 25l-12.5-9.5v-31L62-25zM87 25l-12.5-9.5v-31L87-25z"/><path d="M12 25l12.5 9.5L37 25l-12.5-9.5zM37 25l12.5 9.5L62 25l-12.5-9.5zM62 25l12.5 9.5L87 25l-12.5-9.5zM-13 25l12.5 9.5L12 25-.5 15.5zM87 25l12.5 9.5L112 25l-12.5-9.5z" fill="#5E5E5E"/><path fill="#A0A0A0" d="M12 125l12.5-9.5v-31L12 75zM37 125l12.5-9.5v-31L37 75zM62 125l12.5-9.5v-31L62 75zM87 125l12.5-9.5v-31L87 75z"/><path fill="#E8E8E8" d="M12 125l-12.5-9.5v-31L12 75zM37 125l-12.5-9.5v-31L37 75zM62 125l-12.5-9.5v-31L62 75zM87 125l-12.5-9.5v-31L87 75z"/><path d="M12 75l12.5 9.5L37 75l-12.5-9.5zM37 75l12.5 9.5L62 75l-12.5-9.5zM62 75l12.5 9.5L87 75l-12.5-9.5zM-13 75l12.5 9.5L12 75-.5 65.5zM87 75l12.5 9.5L112 75l-12.5-9.5z" fill="#5E5E5E"/></g></svg>