<svg width="20" height="60" xmlns="http://www.w3.org/2000/svg"><g fill="#FFF" fill-rule="evenodd"><path d="M5 45L-5 60h-5L0 45l-10-15L0 15-10 0h5L5 15-5 30 5 45zm20 0L15 60h-5l10-15-10-15 10-15L10 0h5l10 15-10 15 10 15z" opacity=".2"/><path d="M15 45L5 60H0l10-15L0 30l10-15L0 0h5l10 15L5 30l10 15z" opacity=".2"/><g opacity=".15" fill-opacity=".8"><path d="M10 45L0 60h-5L5 45-5 30 5 15-5 0h5l10 15L0 30l10 15zm20 0L20 60h-5l10-15-10-15 10-15L15 0h5l10 15-10 15 10 15z"/><path d="M20 45L10 60H5l10-15L5 30l10-15L5 0h5l10 15-10 15 10 15z"/></g></g></svg>