<svg width="100" height="100" viewBox="0 0 100 100" xmlns="http://www.w3.org/2000/svg"><title>bg-025</title><g fill="#201F20" fill-rule="nonzero" opacity=".2"><path d="M22.004 21.456l3.268 2.87-6.6 7.514-3.267-2.87zM55.726 54.803l3.268 2.87-6.599 7.514-3.268-2.87zM93.903 86.95l3.268 2.87-6.6 7.514-3.268-2.87zM14.004 56.309l3.268 2.87-6.599 7.514-3.268-2.87zM14.698 86.476l3.269 2.871-6.6 7.513L8.1 93.99zM31.054 34.209l3.076-3.076 7.071 7.07-3.076 3.077zM78.964 15.654l3.076-3.076 7.07 7.07-3.075 3.077zM75.586 81.651l3.076-3.076 7.071 7.071-3.076 3.076zM66.032 41.64l3.075-3.075 7.071 7.07-3.075 3.077zM61.383 90.744l3.076-3.076 7.071 7.07-3.076 3.077zM21.9 78.697l3.075-3.076 7.071 7.071-3.076 3.076zM49.031 14.941l3.768 2.175-5 8.66-3.768-2.175zM82.844 51.087l3.768 2.175-5 8.66-3.768-2.174zM23.8 45.49l-1.43 4.108-9.444-3.286 1.429-4.109zM15.859 76.75l-1.43 4.109-9.444-3.286 1.429-4.108zM53.06 76.504l-1.429 4.109-9.444-3.286 1.429-4.109zM97.607 69.394l-1.429 4.109-9.445-3.286 1.43-4.109zM52.592 33.118l4.34.29-.668 9.978-4.34-.29zM66.386 3.918l-.659 4.3-9.884-1.515.659-4.3zM2.839 29.867l4.34.29-.668 9.978-4.34-.29zM34.44 53.168l4.341.29-.668 9.978-4.34-.29zM8.189 7.868l4.34.29-.668 9.978-4.34-.29zM65.39 68.168l4.34.29-.667 9.978-4.34-.29zM45.045 86.64l3.768 2.174-5 8.66-3.768-2.175zM25.9 11.851l.29-4.34 9.977.668-.29 4.34zM83.266 36.103l.29-4.34 9.978.667-.29 4.34zM63.605 26.186l.29-4.34 9.978.667-.29 4.34zM87.85 8.787l.29-4.34 9.978.667-.29 4.34z"/></g></svg>