<svg width="100" height="100" xmlns="http://www.w3.org/2000/svg"><path d="M22.004 21.456l3.268 2.87-6.6 7.514-3.267-2.87zm33.722 33.347l3.268 2.87-6.599 7.514-3.268-2.87zM93.903 86.95l3.268 2.87-6.6 7.514-3.268-2.87zM14.004 56.309l3.268 2.87-6.599 7.514-3.268-2.87zm.694 30.167l3.269 2.871-6.6 7.513L8.1 93.99zm16.356-52.267l3.076-3.076 7.071 7.07-3.076 3.077zm47.91-18.555l3.076-3.076 7.07 7.07-3.075 3.077zm-3.378 65.997l3.076-3.076 7.071 7.071-3.076 3.076zM66.032 41.64l3.075-3.075 7.071 7.07-3.075 3.077zm-4.649 49.104l3.076-3.076 7.071 7.07-3.076 3.077zM21.9 78.697l3.075-3.076 7.071 7.071-3.076 3.076zm27.131-63.756l3.768 2.175-5 8.66-3.768-2.175zm33.813 36.146l3.768 2.175-5 8.66-3.768-2.174zM23.8 45.49l-1.43 4.108-9.444-3.286 1.429-4.109zm-7.941 31.26l-1.43 4.109-9.444-3.286 1.429-4.108zm37.201-.246l-1.429 4.109-9.444-3.286 1.429-4.109zm44.547-7.11l-1.429 4.109-9.445-3.286 1.43-4.109zM52.592 33.118l4.34.29-.668 9.978-4.34-.29zm13.794-29.2l-.659 4.3-9.884-1.515.659-4.3zM2.839 29.867l4.34.29-.668 9.978-4.34-.29zM34.44 53.168l4.341.29-.668 9.978-4.34-.29zM8.189 7.868l4.34.29-.668 9.978-4.34-.29zm57.201 60.3l4.34.29-.667 9.978-4.34-.29zM45.045 86.64l3.768 2.174-5 8.66-3.768-2.175zM25.9 11.851l.29-4.34 9.977.668-.29 4.34zm57.366 24.252l.29-4.34 9.978.667-.29 4.34zm-19.661-9.917l.29-4.34 9.978.667-.29 4.34zM87.85 8.787l.29-4.34 9.978.667-.29 4.34z" fill="#201F20" opacity=".1"/></svg>