<svg width="144" height="72" xmlns="http://www.w3.org/2000/svg"><path d="M0 47c13.807 0 25 11.193 25 25S13.807 97 0 97s-25-11.193-25-25 11.193-25 25-25zm144 0c13.807 0 25 11.193 25 25s-11.193 25-25 25-25-11.193-25-25 11.193-25 25-25zM72 11c13.807 0 25 11.193 25 25S85.807 61 72 61 47 49.807 47 36s11.193-25 25-25zM0-25c13.807 0 25 11.193 25 25S13.807 25 0 25-25 13.807-25 0s11.193-25 25-25zm144 0c13.807 0 25 11.193 25 25s-11.193 25-25 25-25-11.193-25-25 11.193-25 25-25z" fill="#FFF" fill-rule="evenodd" fill-opacity=".5" opacity=".3"/></svg>