<svg width="100" height="100" xmlns="http://www.w3.org/2000/svg"><g fill="#FFF" opacity=".2"><path d="M29.65 30.3c-.25.7-.65 1.6-.5 2.95C29.3 35 30.3 36.1 31.1 37c.85.95 1.25 1.5 1.15 2.4-.05.7.45 1.35 1.15 1.45h.3c.6-.1 1.05-.55 1.1-1.15.2-2.1-.9-3.35-1.8-4.4-.7-.75-1.2-1.4-1.3-2.3-.05-.7.1-1.15.35-1.75.6-1.55.9-3-1.7-5.15-.55-.45-1.4-.4-1.85.15-.45.55-.4 1.4.15 1.85 1.45 1.1 1.35 1.35 1 2.2zm3.1-9.35c0 1.3-.05 2.9 1.1 4.35 1.1 1.35 2.45 1.8 3.6 2.2 1.5.5 1.95.65 1.8 2.35-.05.7.45 1.3 1.15 1.4h.05c.7.05 1.35-.5 1.4-1.2.25-3.75-2-4.45-3.6-5-.95-.3-1.75-.6-2.35-1.3-.55-.65-.55-1.45-.55-2.65s.05-2.55-.8-3.85c-.4-.6-1.2-.75-1.8-.35-.6.4-.75 1.2-.35 1.8.4.5.35 1.3.35 2.25zM57.8 31.5c-1.05.05-1.5-.6-2.45-2.3-1.1-2-2.65-4.75-6.9-4.5-.7.05-1.3.65-1.25 1.4.05.7.65 1.3 1.4 1.25 2.5-.15 3.3 1.1 4.45 3.15.9 1.65 2 3.65 4.65 3.65h.2c.7-.05 1.3-.65 1.25-1.35-.05-.75-.65-1.35-1.35-1.3zm11.1 37.4c-1.05.05-1.5-.6-2.45-2.3-1.1-2-2.65-4.75-6.9-4.5-.7.05-1.3.65-1.25 1.4.05.7.65 1.3 1.4 1.25 2.5-.15 3.3 1.1 4.45 3.15.9 1.65 2 3.65 4.65 3.65h.2c.7-.05 1.3-.65 1.25-1.35 0-.75-.6-1.35-1.35-1.3zM12.15 22.2c-.7.05-1.3.65-1.25 1.4.05.7.65 1.3 1.4 1.25 2.5-.15 3.3 1.1 4.45 3.15.9 1.65 2 3.65 4.65 3.65h.2c.7-.05 1.3-.65 1.25-1.35-.05-.7-.65-1.3-1.35-1.25-1.05.05-1.5-.6-2.45-2.3-1.15-2.05-2.65-4.8-6.9-4.55zm51.6 67c-1-.2-1.8-.4-2.4-1.1-.45-.5-.6-1-.75-1.6-.4-1.6-1.05-2.95-4.4-3.2-.7-.05-1.35.5-1.4 1.2-.05.7.5 1.35 1.2 1.4 1.75.15 1.8.35 2.05 1.25.2.7.45 1.7 1.3 2.7 1.15 1.3 2.6 1.65 3.8 1.9 1.25.25 1.9.45 2.35 1.25.3.5.9.75 1.45.6.1-.05.25-.1.35-.15.65-.35.85-1.15.45-1.8-1.05-1.8-2.7-2.15-4-2.45zm15.35-8.65c-.95-.2-1.8-.4-2.45-1.1-.6-.6-.7-1.4-.8-2.6-.1-1.2-.2-2.55-1.2-3.75-.45-.55-1.3-.65-1.85-.2s-.65 1.3-.2 1.85.55 1.4.6 2.3c.1 1.3.25 2.9 1.55 4.2 1.2 1.25 2.65 1.55 3.8 1.8 1.55.35 2 .45 2.05 2.15.05.7.6 1.25 1.3 1.25h.05c.7-.05 1.3-.65 1.25-1.35-.1-3.7-2.4-4.2-4.1-4.55zm-41.2-68.4c2.8-.9 3.35.15 4.35 2.75.7 1.9 1.75 4.65 4.95 4.65.4 0 .85-.05 1.3-.15.7-.15 1.15-.85 1-1.55a1.31 1.31 0 0 0-1.55-1c-1.85.4-2.35-.4-3.3-2.85-.9-2.4-2.3-6-7.55-4.35-.7.2-1.05.95-.85 1.65.25.7 1 1.1 1.65.85zm5.7 44.4c-.15-.7-.85-1.15-1.55-1.05-.9.2-1.55.1-1.95-.2-1-.75-1.1-3.15-1.25-5.25-.1-1.35-.15-2.65-.4-3.75-.15-.7-.9-1.15-1.6-.95-.7.15-1.15.9-.95 1.6.2.85.3 2.05.35 3.25.15 2.8.3 5.7 2.25 7.15 1.05.8 2.4 1.05 4.05.7h.05c.7-.15 1.1-.8 1-1.5zm48.05-15.5c-.6-.6-.7-1.4-.8-2.6-.1-1.2-.2-2.55-1.2-3.75-.45-.55-1.3-.65-1.85-.2s-.65 1.3-.2 1.85.55 1.4.6 2.3c.1 1.3.25 2.9 1.55 4.2 1.2 1.25 2.65 1.55 3.8 1.8 1.55.35 2 .45 2.05 2.15.05.7.6 1.25 1.3 1.25h.05c.7-.05 1.3-.65 1.25-1.35-.15-3.75-2.45-4.25-4.1-4.6-.95-.2-1.8-.4-2.45-1.05zM81.45 9.6c2.5-.15 3.3 1.1 4.45 3.15.9 1.65 2 3.65 4.65 3.65h.2c.7-.05 1.3-.65 1.25-1.35-.05-.7-.65-1.3-1.35-1.25-1.05.05-1.5-.6-2.45-2.3-1.1-2-2.65-4.75-6.9-4.5-.7.05-1.3.65-1.25 1.4.05.65.7 1.2 1.4 1.2zM89 61.4c.55.25 1.1.4 1.75.4.75 0 1.55-.2 2.4-.55.65-.3.95-1.05.7-1.7-.3-.65-1.05-.95-1.7-.7-.85.35-1.5.4-1.95.2-1.1-.55-1.75-2.85-2.3-4.85-.35-1.3-.7-2.55-1.2-3.55-.3-.65-1.1-.95-1.75-.6-.65.3-.95 1.1-.6 1.75.4.8.7 1.95 1 3.1.7 2.65 1.45 5.45 3.65 6.5zM66.85 36.55c.05.3.2.6.4.8.3.25.65.4 1.05.3.7-.1 1.2-.75 1.1-1.5-.3-1.95-1.35-3.55-2.25-4.95-1.6-2.45-2.4-3.85-.7-6.1.45-.6.3-1.4-.25-1.85-.6-.45-1.4-.3-1.85.25-2.85 3.8-.9 6.75.6 9.1.9 1.35 1.7 2.55 1.9 3.95zm11.8 15.2c-2.95-.65-4.7-1.9-5.65-3.95-.15-.3-.15-.65-.1-1.15.05-1.05.05-2.6-2.05-3.95-.6-.4-1.4-.2-1.8.4-.4.6-.2 1.4.4 1.8.85.5.8.75.8 1.65 0 .65-.05 1.4.35 2.3 1.25 2.85 3.7 4.6 7.45 5.45.15.05.3.05.4 0 .55-.05 1-.45 1.15-1 .2-.7-.25-1.4-.95-1.55zM50.7 8.1c.35.8.7 1.6 1.25 2.1.7.65 1.6.85 2.35 1 .35.1.85.2 1 .3 1.15 1.05.95 1.75.2 3.95-.15.35-.25.75-.4 1.15-.2.7.15 1.45.85 1.65.7.2 1.45-.15 1.65-.85.1-.4.25-.75.35-1.1.75-2.2 1.55-4.45-.85-6.75-.65-.65-1.5-.8-2.25-.95-.45-.1-.95-.2-1.15-.4-.15-.15-.45-.8-.6-1.2-.3-.75-.65-1.5-1.2-2.1-.5-.55-1.35-.55-1.85-.05-.55.5-.55 1.35-.05 1.85.2.3.5.9.7 1.4zM3.1 17.9c.25.7 1 1 1.7.75l.3-.15c.5-.35.7-.95.45-1.55C4.8 15 3.25 14.4 2 13.85c-.55-.25-1.05-.45-1.5-.7v2.95c.15.05.35.15.5.2 1.15.5 1.8.75 2.1 1.6zm-.05 54.15c.7 1.9 1.75 4.65 4.95 4.65.4 0 .85-.05 1.3-.15.7-.15 1.15-.85 1-1.55a1.31 1.31 0 0 0-1.55-1c-1.85.4-2.35-.4-3.3-2.85-.75-1.95-1.8-4.7-5-4.75V69c1.35.05 1.85 1.1 2.6 3.05zM5.1 48c.15.05.25.05.4.05.55 0 1.05-.35 1.25-.9.2-.7-.15-1.45-.85-1.65-2.6-.8-2.6-1.65-2.65-3.35 0-1.4-.05-3.3-1.9-4.95-.25-.2-.55-.35-.85-.35v3.8c.1.45.1.95.1 1.55.05 1.85.1 4.4 4.5 5.8zm-2.9 8.75c.25.4.4 1.15.6 2.2.05.3.1.65.2 1 .1.65.65 1.05 1.3 1.05h.25c.7-.15 1.2-.8 1.05-1.55-.05-.35-.1-.65-.15-.95-.45-2.6-.8-4.35-4.45-5.1-.15-.05-.3-.05-.4-.05V56c1.1.25 1.4.55 1.6.75zm3.4-25.8c.15.05.35.05.5 0 .5-.1.95-.5 1.05-1.05.15-.7-.35-1.4-1.05-1.55-2.2-.4-3.5-1.65-3.85-3.7v-.7c.05-1.1.2-3.35-1.75-4.65v8.25c1 1.8 2.75 3 5.1 3.4zm7.7 8.65c.9 1.35 0 3.85-.65 5.7l-.1.35c-.25.7.1 1.45.8 1.65.15.05.3.05.45.05.55 0 1.05-.35 1.25-.9l.1-.35c.85-2.35 1.95-5.55.35-8-.75-1.15-1.9-1.75-3-2.35-1.05-.55-2.05-1.05-2.6-1.95-.4-.6-1.2-.8-1.8-.4-.6.4-.8 1.2-.4 1.8.95 1.45 2.35 2.2 3.6 2.85.9.6 1.65 1 2 1.55zm9.25 16.9c-.15 1.15-.3 2.35.45 3.45.6.95 1.6 1.35 2.35 1.7.8.35 1.25.55 1.45 1 .25.6.85.9 1.45.8.1 0 .2-.05.25-.1.65-.25 1-1.05.7-1.7-.6-1.45-1.85-2-2.8-2.4-.55-.25-1.05-.45-1.25-.75-.2-.25-.1-.95 0-1.7.05-.4.1-.9.1-1.35.05-1.35-.35-2.55-1.2-3.45-.95-1-2.35-1.6-4.05-1.6-.7 0-1.35.55-1.35 1.3s.55 1.35 1.3 1.35c.95 0 1.7.3 2.2.8.45.5.55 1.1.5 1.55 0 .35-.05.75-.1 1.1zm19.25 9.6c-3.8-.9-5.7-1.45-7.8-4.8-.4-.6-1.2-.8-1.8-.4-.6.4-.8 1.2-.4 1.8 2.55 4.1 5.25 5 9.4 5.95.1 0 .2.05.3.05.6 0 1.15-.4 1.3-1 .1-.7-.3-1.45-1-1.6zm12.45-3.2c1.05-1.4 2.2-2.85 1.85-4.65-.25-1.35-1.3-2.55-3.25-3.75-.6-.35-1.4-.15-1.8.45-.35.6-.15 1.4.45 1.8 1.65 1 2 1.7 2.05 1.95.1.65-.6 1.55-1.35 2.55-1.15 1.5-2.6 3.35-2.55 5.9 0 .45.25.8.55 1 .25.2.5.25.8.25.75 0 1.3-.6 1.3-1.35-.05-1.55.95-2.85 1.95-4.15zm17.45-5.55c-.75-.45-1.75-.75-2.8-1.1-2.4-.8-4.2-1.45-4.05-2.6.1-.7-.4-1.4-1.15-1.45-.7-.1-1.4.4-1.45 1.15-.45 3.35 3.2 4.55 5.85 5.45.9.3 1.8.6 2.3.9.2.1.45.2.65.2.45 0 .9-.25 1.15-.65.35-.75.15-1.55-.5-1.9zM66.9 17.4c.7.2 1.4.4 1.8.65.7.5 1.25 1 1.75 1.5.8.75 1.5 1.4 2.4 1.75 1.15.45 2.6.35 4.75-.75.65-.35.9-1.1.6-1.75-.35-.65-1.1-.9-1.75-.6-2.35 1.2-2.75.85-4.15-.55-.55-.5-1.2-1.15-2.1-1.8-.75-.5-1.7-.8-2.6-1.05-1.9-.55-2.1-.75-2-1.2.1-.7-.4-1.4-1.1-1.5-.7-.1-1.4.4-1.5 1.1-.4 3 2.3 3.75 3.9 4.2zM55.65 36.25c-.6-.4-1.4-.2-1.8.4-.4.6-.2 1.4.4 1.8 1.25.8 1.65 2.5 2.1 4.3.55 2.4 1.3 5.35 4.55 5.95h.25c.6 0 1.15-.45 1.3-1.05.15-.7-.35-1.4-1.05-1.55-1.45-.25-1.85-1.45-2.45-4-.6-2.05-1.15-4.45-3.3-5.85zm-6.2 46.2c-.85-.4-1.25-1.5-1.7-2.75-.55-1.5-1.2-3.15-2.75-4.25-1.05-.7-2.2-1.15-3.3-1.55-1.25-.45-2.45-.9-3.45-1.7-.55-.45-1.4-.4-1.85.2-.45.55-.4 1.4.2 1.85 1.35 1.15 2.9 1.7 4.2 2.15 1 .35 1.95.7 2.7 1.25.9.6 1.35 1.75 1.8 3 .6 1.55 1.25 3.25 2.95 4.15.2.1.4.15.6.15.5 0 .95-.25 1.15-.7.35-.7.05-1.45-.55-1.8zm7.3-10.7l.3.3c1.15 1 1.6 1.45 1.85 1.95.3.5.45 1.3.75 2.9v.05c.05.3.1.55.15.8.3 1.8.65 3.95 3.65 4.05.4 0 .9 0 1.45-.05.7-.1 1.25-.75 1.15-1.45-.1-.7-.75-1.25-1.45-1.15-1.35.15-1.65-.05-1.75-.15-.2-.25-.35-.95-.45-1.7-.05-.3-.1-.55-.15-.85v-.05c-.7-3.75-.85-4-3.45-6.3l-.3-.25c-.55-.5-1.35-.45-1.85.1-.5.45-.45 1.3.1 1.8zm-38.05-1.5c.55-.1 1-.55 1.1-1.1.1-.7-.4-1.4-1.1-1.5-.65-.1-1.1-2.5-1.25-3.5-.15-.75-.25-1.35-.4-1.85-.65-1.9-1.85-5.35-6.25-5.15-.7.05-1.3.65-1.25 1.35.05.7.65 1.3 1.35 1.25 1.9-.1 2.7.65 3.65 3.4.1.3.2.85.3 1.45.35 2.1.9 5.3 3.5 5.65h.35zm7 16.8c-1.35-.35-2.55-.7-2.8-1.45-.15-.4-.1-1.3-.1-1.95v-.95c-.05-1.8-.55-4.3-4-5.15-.7-.15-1.4.25-1.6.95-.15.7.25 1.4.95 1.6 1.5.35 1.95.95 2 2.7v.8c0 .95-.05 2.05.25 2.85.75 2.15 3.1 2.75 4.65 3.15.1.05.2.05.3.05.6 0 1.1-.4 1.25-1 .2-.7-.2-1.4-.9-1.6zm22.65 4.6c-1.25 0-1.8-.05-2.1-.25-.35-.2-.7-.85-1.3-1.8l-.1-.2c-.85-1.45-2.5-2.65-4.4-3.25-.7-.2-1.45.15-1.65.85-.2.7.15 1.45.85 1.65 1.35.45 2.4 1.2 2.95 2.1l.1.2c1.6 2.6 2.15 3.3 5.6 3.3.7 0 1.3-.6 1.3-1.3.05-.75-.5-1.3-1.25-1.3zM76.8 25.8c-.5-.5-1.35-.5-1.85 0s-.5 1.35 0 1.85c.25.25.4.5.6.8.35.55.8 1.2 1.65 1.75 1.3.85 3.7 1.5 5.25 1.5h.15c.7 0 1.3-.65 1.25-1.35 0-.75-.65-1.3-1.35-1.25-1.05.05-3-.5-3.9-1.1-.4-.25-.6-.55-.85-.95-.25-.4-.55-.8-.95-1.25zm22.5 61.6c-.95-.55-2.05-.7-3.1-.85-2.25-.35-2.95-.55-3.1-2.1-.05-.7-.7-1.25-1.4-1.2-.7.05-1.25.7-1.2 1.4.3 3.7 3.3 4.15 5.3 4.45.85.15 1.65.25 2.2.55.2.1.45.15.65.15.45 0 .9-.25 1.15-.65.35-.55.1-1.35-.5-1.75zM81 70.45c.75 0 1.35-.55 1.35-1.25.05-1.3-.05-4.6-2.15-6.7-1.1-1.1-2.55-1.65-4.2-1.6-.7 0-1.3.65-1.25 1.35 0 .75.6 1.3 1.35 1.25.95-.05 1.7.25 2.25.8 1.1 1.1 1.45 3.2 1.4 4.75-.05.75.5 1.35 1.25 1.4zM68.2 4.95c.7.6 1.55.9 2.3 1.15 1.3.45 1.7.7 1.8 1.35.1.65.65 1.1 1.3 1.1h.25c.7-.15 1.2-.8 1.05-1.55-.4-2.25-2.2-2.9-3.5-3.35-.6-.2-1.15-.4-1.5-.7-.85-.7-.95-1.2-.95-2.4H66.3c.05 1.45.15 2.9 1.9 4.4zm16.9 40.1c.65-.25 1-1.05.75-1.7-1.05-2.75-3.8-3-6-3.2-2.45-.25-3.55-.45-4-1.8-.25-.7-1-1.05-1.7-.8s-1.05 1-.8 1.7c1.1 3 3.95 3.25 6.25 3.5 2.3.2 3.35.45 3.8 1.55.2.5.7.85 1.2.85.2 0 .35-.05.5-.1zm9-42.1c.05.7.6 1.25 1.3 1.25h.05c.7-.05 1.3-.65 1.25-1.35-.05-1-.25-1.8-.55-2.4H90.7c.45.15.9.25 1.3.35 1.6.4 2.05.45 2.1 2.15zm-83.55.65c.2.1.45.2.65.2.45 0 .9-.25 1.15-.65.35-.65.15-1.45-.45-1.8-.55-.35-1.25-.6-2-.85H3.6c1.2 1.1 3.1 1.7 4.6 2.2.95.3 1.85.6 2.35.9zm46.95-.2c.7 0 1.3-.6 1.3-1.3 0-.55-.05-1.1-.1-1.6h-2.65c.05.5.1 1 .1 1.6.05.7.65 1.3 1.35 1.3zM40.2 5c.1 0 .2.05.3.05.6 0 1.15-.4 1.3-1.05.15-.7-.3-1.4-1-1.55-.85-.2-1.15-.65-1.3-1.95h-2.65c.2 1.75.7 3.9 3.35 4.5zm-13-1.25c.5.15.95.3 1.2.5.25.25.3.5.3 1.25 0 .55.05 1.25.3 2 .2.55.7.9 1.25.9.15 0 .3 0 .4-.05.7-.25 1.05-1 .8-1.65-.15-.4-.15-.8-.15-1.25-.05-.9-.05-2-1.05-3-.7-.7-1.6-1-2.35-1.2-.55-.15-1.05-.3-1.25-.55-.05-.05-.05-.1-.1-.15h-2.8c.15.55.35 1.1.75 1.65.75.95 1.8 1.3 2.7 1.55zm72.6 8.65c-.35-.6-.4-1.1-.45-1.7-.15-1.65-.55-3.05-3.85-3.85-.7-.15-1.4.25-1.6.95-.15.7.25 1.4.95 1.6 1.7.4 1.75.65 1.85 1.55.05.75.15 1.75.85 2.85.8 1.25 1.95 1.85 2.95 2.3v-2.95c-.3-.2-.5-.4-.7-.75zm-1.9 54.4c-.7.2-1.05.95-.85 1.65.2.7.95 1.05 1.65.85.75-.25 1.3-.35 1.8-.3v-2.6c-.75-.05-1.6.05-2.6.4zm1.6-29.55c-.5.55-.45 1.35.1 1.85s.8 1 .9 1.5v-3.8c-.35.05-.75.15-1 .45zm-1.1 16.1c-.65.05-1.85.15-2.1-.05 0 0-.1-.15 0-.6.1-.7-.4-1.4-1.15-1.45-.7-.1-1.4.4-1.45 1.15-.15 1.15.1 2.1.7 2.75 1.05 1.1 2.75 1 4.25.85.7-.05 1.4-.1 1.8 0 .05 0 .1 0 .1.05V53.4c-.75-.15-1.45-.1-2.15-.05zm-1.25-33.8c-.15.7.25 1.4.95 1.6 1.5.35 1.65 1.05 1.55 2.7-.05.45-.05.85 0 1.25.15.9.45 1.75.85 2.5v-8.3c-.45-.3-1.05-.6-1.8-.75-.7-.15-1.4.3-1.55 1zm-4.55 78.7c-.95-.2-1.8-.4-2.45-1.1-.6-.6-.7-1.4-.8-2.6-.1-1.2-.2-2.55-1.2-3.75-.45-.55-1.3-.65-1.85-.2s-.65 1.3-.2 1.85.55 1.4.6 2.3c.1 1.3.25 2.9 1.55 4.2.8.8 1.65 1.2 2.45 1.45h5.45c-.75-1.5-2.3-1.85-3.55-2.15zM5 97.6c.1-.7-.4-1.4-1.15-1.45-.7-.1-1.4.4-1.45 1.15-.2 1.4.35 2.45 1.25 3.2h6.3c-.3-.1-.55-.2-.85-.3-2.45-.75-4.25-1.45-4.1-2.6zm48.1-4.4c-.55.5-.55 1.35-.05 1.85 1.75 1.85 2.75 3.25 3.05 5.45h2.65c-.35-3.05-1.65-5.05-3.8-7.25-.45-.55-1.3-.55-1.85-.05zm26.45 5.95c-.7-.75-.95-2.15-1.15-3.4l-.05-.4c-.2-1.25-.8-2.4-1.3-3.45-.45-.9-.85-1.7-.95-2.35-.1-.7-.75-1.2-1.5-1.1-.7.1-1.2.75-1.1 1.5.15 1.1.7 2.15 1.2 3.2.45.9.9 1.85 1.05 2.7l.05.4c.2 1.4.5 3.05 1.5 4.35h2.55c.15-.55.1-1.1-.3-1.45zm-44.95-5.1c-.75-.05-1.35.5-1.4 1.2-.05.7.5 1.35 1.2 1.4 1.95.15 2.15 1.05 2.35 3.2 0 .2.05.4.05.6h2.7c-.05-.25-.05-.55-.1-.85-.25-2.05-.55-5.25-4.8-5.55zm-12.45.5c-.75-.05-1.35.5-1.4 1.25-.05.7.5 1.35 1.25 1.4.9.05 1.35.25 1.45.4.15.2.15.7.15 1.2s.05 1.1.2 1.7h2.8c-.3-.5-.3-1.1-.35-1.8-.05-1.45-.15-3.9-4.1-4.15zm-7.9-3.4c-.3-.15-.6-.3-.85-.5-.75-.65-.75-.65-.85-1.5-.05-.25-.05-.55-.15-.95v-.1c-.25-1.6-.6-3.6-2.6-4.75-.85-.5-1.8-.55-2.65-.6C6.6 82.7 6 82.7 5.8 82.5c-.55-.5-1.35-.45-1.85.1s-.45 1.35.1 1.85c.9.85 2.05.9 3 .95.6.05 1.15.05 1.45.25.9.5 1.05 1.45 1.3 2.9v.1c.05.35.1.6.1.85.15 1.35.35 2 1.75 3.15.5.4 1 .65 1.4.85.65.3.7.35.8.85.05.65.65 1.2 1.3 1.2h.15c.7-.1 1.25-.7 1.15-1.45-.2-2-1.4-2.6-2.2-2.95zM18.9 10.6c.3.25.5.4.7.65.6.8.6.8.5 1.65-.05.25-.05.55-.1.95v.1c-.1 1.6-.25 3.65 1.45 5.25.75.7 1.65.95 2.45 1.2.5.15 1.1.3 1.25.55.4.6 1.2.75 1.8.35.6-.4.75-1.2.35-1.8-.7-1-1.8-1.35-2.7-1.6-.55-.15-1.1-.3-1.35-.55-.75-.7-.7-1.65-.6-3.15v-.1c0-.35.05-.6.1-.85.15-1.35.1-2-1-3.5-.4-.5-.8-.85-1.15-1.15-.6-.45-.65-.5-.55-1 .1-.65-.35-1.3-1-1.45h-.15c-.75-.15-1.4.35-1.5 1.1-.25 1.9.8 2.8 1.5 3.35zM87 21.25c-.95-.25-2.3-.65-2.35-1.1-.15-.7-.8-1.2-1.55-1.05-.7.15-1.2.8-1.05 1.55.4 2.05 2.55 2.65 4.25 3.15.9.25 2.05.6 2.4 1 .45.6.8 1.4 1.15 2.3.75 1.85 1.6 4 3.85 4.85.15.05.3.1.45.1.55 0 1.05-.3 1.25-.85.25-.7-.1-1.45-.75-1.7-1.15-.45-1.75-1.85-2.35-3.4-.4-1-.85-2.05-1.45-2.9-.9-1.15-2.4-1.55-3.85-1.95zm8.1 58.3c.6 0 1.2-.45 1.3-1.1.15-.7-.35-1.4-1.05-1.5-3.25-.6-7.05-2.7-7.55-5.05a1.31 1.31 0 0 0-1.55-1c-.7.15-1.15.85-1 1.55.85 4.1 6.25 6.5 9.65 7.1h.2zm-26.15 20c0-.7-.6-1.3-1.3-1.3-.75 0-1.3.6-1.3 1.35v.95H69v-.35c-.05-.25-.05-.45-.05-.65zm9.65-98.2c.35 0 .65-.1.9-.35.15-.15.25-.3.3-.5h-2.55c.1.15.25.3.4.45.3.25.65.4.95.4z"/><circle cx="44.8" cy="44.5" r="2"/><circle cx="14.75" cy="14.25" r="2"/><circle cx="81" cy="14.9" r="2"/><circle cx="53.4" cy="75.85" r="2"/><circle cx="91" cy="67.5" r="2"/><circle cx="25.75" cy="76.25" r="2"/><circle cx="81" cy="76.25" r="2"/><circle cx="15" cy="84" r="2"/><circle cx="70.6" cy="25.5" r="2"/><circle cx="58.2" cy="25.75" r="2"/><circle cx="30.2" cy="47.5" r="2"/></g></svg>