<svg width="100" height="100" xmlns="http://www.w3.org/2000/svg"><g opacity=".1"><path d="M36.35 64.5H5c-.3 0-.5.2-.5.5v31.35c0 .3.2.5.5.5h31.35c.3 0 .5-.2.5-.5V65c0-.3-.2-.5-.5-.5zM34.5 94c0 .3-.2.5-.5.5H7.35c-.3 0-.5-.2-.5-.5V67.35c0-.3.2-.5.5-.5H34c.3 0 .5.2.5.5V94z"/><path d="M26.35 74.5H15c-.3 0-.5.2-.5.5v11.35c0 .3.2.5.5.5h11.35c.3 0 .5-.2.5-.5V75c0-.3-.2-.5-.5-.5zM24.5 84c0 .3-.2.5-.5.5h-6.65c-.3 0-.5-.2-.5-.5v-6.65c0-.3.2-.5.5-.5H24c.3 0 .5.2.5.5V84zm31.85.5H45c-.3 0-.5.2-.5.5v11.35c0 .3.2.5.5.5h11.35c.3 0 .5-.2.5-.5V85c0-.3-.2-.5-.5-.5zM54.5 94c0 .3-.2.5-.5.5h-6.65c-.3 0-.5-.2-.5-.5v-6.65c0-.3.2-.5.5-.5H54c.3 0 .5.2.5.5V94z"/><path d="M31.35 69.5H10c-.3 0-.5.2-.5.5v21.35c0 .3.2.5.5.5h21.35c.3 0 .5-.2.5-.5V70c0-.3-.2-.5-.5-.5zM29.5 89c0 .3-.2.5-.5.5H12.35c-.3 0-.5-.2-.5-.5V72.35c0-.3.2-.5.5-.5H29c.3 0 .5.2.5.5V89zM70 11.85h21.35c.3 0 .5-.2.5-.5V0H89.5v9c0 .3-.2.5-.5.5H72.35c-.3 0-.5-.2-.5-.5V0H69.5v11.35c0 .3.2.5.5.5z"/><path d="M65 16.85h31.35c.3 0 .5-.2.5-.5V0H94.5v14c0 .3-.2.5-.5.5H67.35c-.3 0-.5-.2-.5-.5V0H64.5v16.35c0 .3.2.5.5.5z"/><path d="M81.35 19.5h-19c-.3 0-.5-.2-.5-.5V0H0v21.85h19c.3 0 .5.2.5.5V59c0 .3-.2.5-.5.5H0V100h1.85V62.35c0-.3.2-.5.5-.5H39c.3 0 .5.2.5.5V100h2.35V82.35c0-.3.2-.5.5-.5H59c.3 0 .5.2.5.5V100h2.35V82.35c0-.3.2-.5.5-.5H100V79.5H82.35c-.3 0-.5-.2-.5-.5V62.35c0-.3.2-.5.5-.5H100V59.5H82.35c-.3 0-.5-.2-.5-.5V22.35c0-.3.2-.5.5-.5H100V19.5H81.35zM19.5 19c0 .3-.2.5-.5.5H2.35c-.3 0-.5-.2-.5-.5V2.35c0-.3.2-.5.5-.5H19c.3 0 .5.2.5.5V19zm20 40c0 .3-.2.5-.5.5H22.35c-.3 0-.5-.2-.5-.5V42.35c0-.3.2-.5.5-.5H39c.3 0 .5.2.5.5V59zm1.85-19.5h-19c-.3 0-.5-.2-.5-.5V2.35c0-.3.2-.5.5-.5H59c.3 0 .5.2.5.5V39c0 .3-.2.5-.5.5H41.35zM79.5 60v19c0 .3-.2.5-.5.5H42.35c-.3 0-.5-.2-.5-.5V42.35c0-.3.2-.5.5-.5H79c.3 0 .5.2.5.5V60zm0-21c0 .3-.2.5-.5.5H62.35c-.3 0-.5-.2-.5-.5V22.35c0-.3.2-.5.5-.5H79c.3 0 .5.2.5.5V39z"/><path d="M16.85 56.35V25c0-.3-.2-.5-.5-.5H0v2.35h14c.3 0 .5.2.5.5V54c0 .3-.2.5-.5.5H0v2.35h16.35c.3 0 .5-.2.5-.5zM75 6.85h11.35c.3 0 .5-.2.5-.5V0H84.5v4c0 .3-.2.5-.5.5h-6.65c-.3 0-.5-.2-.5-.5V0H74.5v6.35c0 .3.2.5.5.5z"/><path d="M11.85 51.35V30c0-.3-.2-.5-.5-.5H0v2.35h9c.3 0 .5.2.5.5V49c0 .3-.2.5-.5.5H0v2.35h11.35c.3 0 .5-.2.5-.5zm64.5-26.85H65c-.3 0-.5.2-.5.5v11.35c0 .3.2.5.5.5h11.35c.3 0 .5-.2.5-.5V25c0-.3-.2-.5-.5-.5zM74.5 34c0 .3-.2.5-.5.5h-6.65c-.3 0-.5-.2-.5-.5v-6.65c0-.3.2-.5.5-.5H74c.3 0 .5.2.5.5V34z"/><path d="M6.85 46.35V35c0-.3-.2-.5-.5-.5H0v2.35h4c.3 0 .5.2.5.5V44c0 .3-.2.5-.5.5H0v2.35h6.35c.3 0 .5-.2.5-.5zM94.5 35v11.35c0 .3.2.5.5.5h5V44.5h-2.65c-.3 0-.5-.2-.5-.5v-6.65c0-.3.2-.5.5-.5H100V34.5h-5c-.3 0-.5.2-.5.5zM16.35 4.5H5c-.3 0-.5.2-.5.5v11.35c0 .3.2.5.5.5h11.35c.3 0 .5-.2.5-.5V5c0-.3-.2-.5-.5-.5zM14.5 14c0 .3-.2.5-.5.5H7.35c-.3 0-.5-.2-.5-.5V7.35c0-.3.2-.5.5-.5H14c.3 0 .5.2.5.5V14z"/><path d="M84.5 25v31.35c0 .3.2.5.5.5h15V54.5H87.35c-.3 0-.5-.2-.5-.5V27.35c0-.3.2-.5.5-.5H100V24.5H85c-.3 0-.5.2-.5.5z"/><path d="M89.5 30v21.35c0 .3.2.5.5.5h10V49.5h-7.65c-.3 0-.5-.2-.5-.5V32.35c0-.3.2-.5.5-.5H100V29.5H90c-.3 0-.5.2-.5.5zM66.35 54.5H55c-.3 0-.5.2-.5.5v11.35c0 .3.2.5.5.5h11.35c.3 0 .5-.2.5-.5V55c0-.3-.2-.5-.5-.5zM64.5 64c0 .3-.2.5-.5.5h-6.65c-.3 0-.5-.2-.5-.5v-6.65c0-.3.2-.5.5-.5H64c.3 0 .5.2.5.5V64zM56.35 4.5H25c-.3 0-.5.2-.5.5v31.35c0 .3.2.5.5.5h31.35c.3 0 .5-.2.5-.5V5c0-.3-.2-.5-.5-.5zM54.5 34c0 .3-.2.5-.5.5H27.35c-.3 0-.5-.2-.5-.5V7.35c0-.3.2-.5.5-.5H54c.3 0 .5.2.5.5V34z"/><path d="M71.35 49.5H50c-.3 0-.5.2-.5.5v21.35c0 .3.2.5.5.5h21.35c.3 0 .5-.2.5-.5V50c0-.3-.2-.5-.5-.5zM69.5 69c0 .3-.2.5-.5.5H52.35c-.3 0-.5-.2-.5-.5V52.35c0-.3.2-.5.5-.5H69c.3 0 .5.2.5.5V69zM51.35 9.5H30c-.3 0-.5.2-.5.5v21.35c0 .3.2.5.5.5h21.35c.3 0 .5-.2.5-.5V10c0-.3-.2-.5-.5-.5zM49.5 29c0 .3-.2.5-.5.5H32.35c-.3 0-.5-.2-.5-.5V12.35c0-.3.2-.5.5-.5H49c.3 0 .5.2.5.5V29zM36.35 44.5H25c-.3 0-.5.2-.5.5v11.35c0 .3.2.5.5.5h11.35c.3 0 .5-.2.5-.5V45c0-.3-.2-.5-.5-.5zM34.5 54c0 .3-.2.5-.5.5h-6.65c-.3 0-.5-.2-.5-.5v-6.65c0-.3.2-.5.5-.5H34c.3 0 .5.2.5.5V54z"/><path d="M46.35 14.5H35c-.3 0-.5.2-.5.5v11.35c0 .3.2.5.5.5h11.35c.3 0 .5-.2.5-.5V15c0-.3-.2-.5-.5-.5zM44.5 24c0 .3-.2.5-.5.5h-6.65c-.3 0-.5-.2-.5-.5v-6.65c0-.3.2-.5.5-.5H44c.3 0 .5.2.5.5V24zM85 76.85h11.35c.3 0 .5-.2.5-.5V65c0-.3-.2-.5-.5-.5H85c-.3 0-.5.2-.5.5v11.35c0 .3.2.5.5.5zm1.85-9.5c0-.3.2-.5.5-.5H94c.3 0 .5.2.5.5V74c0 .3-.2.5-.5.5h-6.65c-.3 0-.5-.2-.5-.5v-6.65zm-.5 27.15H75c-.3 0-.5.2-.5.5v5h2.35v-2.65c0-.3.2-.5.5-.5H84c.3 0 .5.2.5.5V100h2.35v-5c0-.3-.2-.5-.5-.5zm-10-50H45c-.3 0-.5.2-.5.5v31.35c0 .3.2.5.5.5h31.35c.3 0 .5-.2.5-.5V45c0-.3-.2-.5-.5-.5zM74.5 74c0 .3-.2.5-.5.5H47.35c-.3 0-.5-.2-.5-.5V47.35c0-.3.2-.5.5-.5H74c.3 0 .5.2.5.5V74z"/><path d="M91.35 89.5H70c-.3 0-.5.2-.5.5v10h2.35v-7.65c0-.3.2-.5.5-.5H89c.3 0 .5.2.5.5V100h2.35V90c0-.3-.2-.5-.5-.5z"/><path d="M96.35 84.5H65c-.3 0-.5.2-.5.5v15h2.35V87.35c0-.3.2-.5.5-.5H94c.3 0 .5.2.5.5V100h2.35V85c0-.3-.2-.5-.5-.5z"/></g></svg>