<svg width="160" height="85" xmlns="http://www.w3.org/2000/svg"><defs><filter x="-5%" y="-4%" height="116%" filterUnits="objectBoundingBox" id="a"><feOffset dx="2" dy="2" in="SourceAlpha" result="shadowOffsetOuter1"/><feColorMatrix values="0 0 0 0 0 0 0 0 0 0 0 0 0 0 0 0 0 0 0.2 0" in="shadowOffsetOuter1" result="shadowMatrixOuter1"/><feMerge><feMergeNode in="shadowMatrixOuter1"/><feMergeNode in="SourceGraphic"/></feMerge></filter><filter x="-4.8%" y="-4%" width="119%" height="116%" filterUnits="objectBoundingBox" id="b"><feOffset dx="2" dy="2" in="SourceAlpha" result="shadowOffsetOuter1"/><feColorMatrix values="0 0 0 0 0 0 0 0 0 0 0 0 0 0 0 0 0 0 0.2 0" in="shadowOffsetOuter1" result="shadowMatrixOuter1"/><feMerge><feMergeNode in="shadowMatrixOuter1"/><feMergeNode in="SourceGraphic"/></feMerge></filter><filter x="-5%" y="-4%" height="116%" filterUnits="objectBoundingBox" id="c"><feOffset dx="2" dy="2" in="SourceAlpha" result="shadowOffsetOuter1"/><feColorMatrix values="0 0 0 0 0 0 0 0 0 0 0 0 0 0 0 0 0 0 0.2 0" in="shadowOffsetOuter1" result="shadowMatrixOuter1"/><feMerge><feMergeNode in="shadowMatrixOuter1"/><feMergeNode in="SourceGraphic"/></feMerge></filter><filter x="-4.8%" y="-4%" width="119%" height="116%" filterUnits="objectBoundingBox" id="d"><feOffset dx="2" dy="2" in="SourceAlpha" result="shadowOffsetOuter1"/><feColorMatrix values="0 0 0 0 0 0 0 0 0 0 0 0 0 0 0 0 0 0 0.2 0" in="shadowOffsetOuter1" result="shadowMatrixOuter1"/><feMerge><feMergeNode in="shadowMatrixOuter1"/><feMergeNode in="SourceGraphic"/></feMerge></filter><filter x="-5%" y="-4%" height="116%" filterUnits="objectBoundingBox" id="e"><feOffset dx="2" dy="2" in="SourceAlpha" result="shadowOffsetOuter1"/><feColorMatrix values="0 0 0 0 0 0 0 0 0 0 0 0 0 0 0 0 0 0 0.2 0" in="shadowOffsetOuter1" result="shadowMatrixOuter1"/><feMerge><feMergeNode in="shadowMatrixOuter1"/><feMergeNode in="SourceGraphic"/></feMerge></filter><filter x="-5%" y="-4%" height="116%" filterUnits="objectBoundingBox" id="f"><feOffset dx="2" dy="2" in="SourceAlpha" result="shadowOffsetOuter1"/><feColorMatrix values="0 0 0 0 0 0 0 0 0 0 0 0 0 0 0 0 0 0 0.2 0" in="shadowOffsetOuter1" result="shadowMatrixOuter1"/><feMerge><feMergeNode in="shadowMatrixOuter1"/><feMergeNode in="SourceGraphic"/></feMerge></filter></defs><g fill="none"><g filter="url(#a)" transform="rotate(-30 9.196 10.464)"><path d="M17.633.05H3.779a3.517 3.517 0 0 0-.276-.012C1.573.038.009 1.613.009 3.557c0 .094.004.188.01.28H.01v18.477C.01 23.245.76 24 1.684 24h1.921v-3.866c.164.05.337.078.517.078h14.074c.97 0 1.758-.793 1.758-1.771V2.387A2.329 2.329 0 0 0 17.633.05z" fill="#D32A2A"/><path d="M18.957 3.093c0-1.048-.982-1.904-2.22-1.969V1.12H3.502c-.965 0-1.747.603-1.747 1.347s.782 1.347 1.747 1.347v.024h9.589v18.617l3.493.413c1.357 0 2.372-2.703 2.372-4.038V3.186h-.003l.003-.093z" fill="#DCE2E2"/><path d="M15.867 3.838H3.604V24h12.263a1.74 1.74 0 0 0 1.733-1.746V5.584a1.74 1.74 0 0 0-1.733-1.746z" fill="#FF473E"/><path d="M13.167 11.305H6.882a.683.683 0 0 1-.681-.686V8.233c0-.38.305-.686.68-.686h6.286c.376 0 .681.307.681.686v2.386a.683.683 0 0 1-.68.686z" fill="#2B3B47"/></g><g filter="url(#b)" transform="rotate(29 -5.6 119.168)"><path d="M.009 3.333h3.95V8.32H.009z" fill="#009E83"/><ellipse cx="3.503" cy="3.557" rx="3.494" ry="3.519" fill="#009E83"/><path d="M18.195 20.212H4.12a1.765 1.765 0 0 1-1.76-1.771V1.82C2.362.843 2.41.05 3.382.05h14.252a2.329 2.329 0 0 1 2.32 2.337V18.44c0 .978-.787 1.771-1.758 1.771z" fill="#009E83"/><path d="M18.957 3.093c0-1.048-.982-1.904-2.22-1.969V1.12H3.502c-.965 0-1.747.603-1.747 1.347s.782 1.347 1.747 1.347v.024h9.589v18.617l3.493.413c1.357 0 2.372-2.703 2.372-4.038V3.186h-.003l.003-.093z" fill="#DCE2E2"/><path d="M15.867 24H1.743a1.74 1.74 0 0 1-1.734-1.746V5.584c0-.965 2.536-1.746 3.494-1.746h12.364A1.74 1.74 0 0 1 17.6 5.584v16.67A1.74 1.74 0 0 1 15.867 24z" fill="#00B89C"/><path d="M3.604 24h-1.92a1.68 1.68 0 0 1-1.675-1.686V3.838h3.595V24z" fill="#009E83"/><path d="M13.167 11.305H6.882a.683.683 0 0 1-.681-.686V8.233c0-.38.305-.686.68-.686h6.286c.376 0 .681.307.681.686v2.386a.683.683 0 0 1-.68.686z" fill="#2B3B47"/></g><g filter="url(#c)" transform="rotate(-39 58.566 49.855)"><path d="M17.633.05H3.779a3.517 3.517 0 0 0-.276-.012C1.573.038.009 1.613.009 3.557c0 .094.004.188.01.28H.01v18.477C.01 23.245.76 24 1.684 24h1.921v-3.866c.164.05.337.078.517.078h14.074c.97 0 1.758-.793 1.758-1.771V2.387A2.329 2.329 0 0 0 17.633.05z" fill="#0096D1"/><path d="M18.957 3.093c0-1.048-.982-1.904-2.22-1.969V1.12H3.502c-.965 0-1.747.603-1.747 1.347s.782 1.347 1.747 1.347v.024h9.589v18.617l3.493.413c1.357 0 2.372-2.703 2.372-4.038V3.186h-.003l.003-.093z" fill="#DCE2E2"/><path d="M15.867 3.838H3.604V24h12.263a1.74 1.74 0 0 0 1.733-1.746V5.584a1.74 1.74 0 0 0-1.733-1.746z" fill="#59CAFC"/></g><g filter="url(#d)" transform="rotate(-20 96.192 -294.42)"><path d="M.009 3.333h3.95V8.32H.009z" fill="#FF6F1F"/><ellipse cx="3.503" cy="3.557" rx="3.494" ry="3.519" fill="#FF6F1F"/><path d="M18.195 20.212H4.12a1.765 1.765 0 0 1-1.76-1.771V1.82C2.362.843 2.41.05 3.382.05h14.252a2.329 2.329 0 0 1 2.32 2.337V18.44c0 .978-.787 1.771-1.758 1.771z" fill="#FF6F1F"/><path d="M18.957 3.093c0-1.048-.982-1.904-2.22-1.969V1.12H3.502c-.965 0-1.747.603-1.747 1.347s.782 1.347 1.747 1.347v.024h9.589v18.617l3.493.413c1.357 0 2.372-2.703 2.372-4.038V3.186h-.003l.003-.093z" fill="#DCE2E2"/><path d="M15.867 24H1.743a1.74 1.74 0 0 1-1.734-1.746V5.584c0-.965 2.536-1.746 3.494-1.746h12.364A1.74 1.74 0 0 1 17.6 5.584v16.67A1.74 1.74 0 0 1 15.867 24z" fill="#F2A74E"/><path d="M3.604 24h-1.92a1.68 1.68 0 0 1-1.675-1.686V3.838h3.595V24z" fill="#FF6F1F"/><path d="M13.167 11.305H6.882a.683.683 0 0 1-.681-.686V8.233c0-.38.305-.686.68-.686h6.286c.376 0 .681.307.681.686v2.386a.683.683 0 0 1-.68.686z" fill="#2B3B47"/></g><g filter="url(#e)" transform="rotate(-39 138.566 -176.058)"><path d="M17.633.05H3.779a3.517 3.517 0 0 0-.276-.012C1.573.038.009 1.613.009 3.557c0 .094.004.188.01.28H.01v18.477C.01 23.245.76 24 1.684 24h1.921v-3.866c.164.05.337.078.517.078h14.074c.97 0 1.758-.793 1.758-1.771V2.387A2.329 2.329 0 0 0 17.633.05z" fill="#0096D1"/><path d="M18.957 3.093c0-1.048-.982-1.904-2.22-1.969V1.12H3.502c-.965 0-1.747.603-1.747 1.347s.782 1.347 1.747 1.347v.024h9.589v18.617l3.493.413c1.357 0 2.372-2.703 2.372-4.038V3.186h-.003l.003-.093z" fill="#DCE2E2"/><path d="M15.867 3.838H3.604V24h12.263a1.74 1.74 0 0 0 1.733-1.746V5.584a1.74 1.74 0 0 0-1.733-1.746z" fill="#59CAFC"/><path d="M13.167 11.305H6.882a.683.683 0 0 1-.681-.686V8.233c0-.38.305-.686.68-.686h6.286c.376 0 .681.307.681.686v2.386a.683.683 0 0 1-.68.686z" fill="#2B3B47"/></g><g filter="url(#f)" transform="rotate(-30 89.196 -288.1)"><path d="M17.633.05H3.779a3.517 3.517 0 0 0-.276-.012C1.573.038.009 1.613.009 3.557c0 .094.004.188.01.28H.01v18.477C.01 23.245.76 24 1.684 24h1.921v-3.866c.164.05.337.078.517.078h14.074c.97 0 1.758-.793 1.758-1.771V2.387A2.329 2.329 0 0 0 17.633.05z" fill="#D32A2A"/><path d="M18.957 3.093c0-1.048-.982-1.904-2.22-1.969V1.12H3.502c-.965 0-1.747.603-1.747 1.347s.782 1.347 1.747 1.347v.024h9.589v18.617l3.493.413c1.357 0 2.372-2.703 2.372-4.038V3.186h-.003l.003-.093z" fill="#DCE2E2"/></g></g></svg>