<svg width="180" height="120" xmlns="http://www.w3.org/2000/svg"><g transform="translate(0 -6)" fill="#FFF" fill-rule="evenodd" opacity=".25"><path d="M66 116a6 6 0 1 1 0-12 6 6 0 0 1 0 12zm0-2a4 4 0 1 0 0-8 4 4 0 0 0 0 8zM6 70a4 4 0 1 1 0-8 4 4 0 0 1 0 8zm0-2a2 2 0 1 0 0-4 2 2 0 0 0 0 4zm90 32a4 4 0 1 1 0-8 4 4 0 0 1 0 8zm0-2a2 2 0 1 0 0-4 2 2 0 0 0 0 4zm30-52a4 4 0 1 1 0-8 4 4 0 0 1 0 8zm0-2a2 2 0 1 0 0-4 2 2 0 0 0 0 4z" opacity=".5"/><g opacity=".5"><rect x="5" width="2" height="12" rx="1"/><rect transform="rotate(90 6 6)" x="5" width="2" height="12" rx="1"/></g><g opacity=".5" transform="translate(30 96)"><rect x="5" width="2" height="12" rx="1"/><rect transform="rotate(90 6 6)" x="5" width="2" height="12" rx="1"/></g><g opacity=".5" transform="translate(90 60)"><rect x="5" width="2" height="12" rx="1"/><rect transform="rotate(90 6 6)" x="5" width="2" height="12" rx="1"/></g><g opacity=".5" transform="translate(150 44)"><rect x="5" width="2" height="12" rx="1"/><rect transform="rotate(90 6 6)" x="5" width="2" height="12" rx="1"/></g><g opacity=".5" transform="rotate(45 60.686 195.48)"><rect x="3" width="2" height="8" rx="1"/><rect transform="rotate(90 4 4)" x="3" width="2" height="8" rx="1"/></g><g opacity=".5" transform="rotate(45 -25.87 61.627)"><rect x="3" width="2" height="8" rx="1"/><rect transform="rotate(90 4 4)" x="3" width="2" height="8" rx="1"/></g><g opacity=".5"><path d="M12 91v4a1 1 0 0 1-2 0v-3H7a1 1 0 1 1 0-2h4a1 1 0 0 1 1 1z"/><path d="M9 94v4a1 1 0 1 1-2 0v-3H4a1 1 0 1 1 0-2h4a1 1 0 0 1 1 1z"/><path d="M6 97v4a1 1 0 0 1-2 0v-3H1a1 1 0 1 1 0-2h4a1 1 0 0 1 1 1z"/></g><g opacity=".5"><path d="M151 74h4a1 1 0 0 1 0 2h-3v3a1 1 0 1 1-2 0v-4a1 1 0 0 1 1-1z"/><path d="M154 77h4a1 1 0 1 1 0 2h-3v3a1 1 0 1 1-2 0v-4a1 1 0 0 1 1-1z"/><path d="M157 80h4a1 1 0 0 1 0 2h-3v3a1 1 0 1 1-2 0v-4a1 1 0 0 1 1-1z"/></g><g opacity=".5"><path d="M98 129h-4a1 1 0 1 1 0-2h3v-3a1 1 0 1 1 2 0v4a1 1 0 0 1-1 1z"/><path d="M95 126h-4a1 1 0 0 1 0-2h3v-3a1 1 0 1 1 2 0v4a1 1 0 0 1-1 1z"/></g><g opacity=".5"><path d="M101 12h-4a1 1 0 0 1 0-2h3V7a1 1 0 1 1 2 0v4a1 1 0 0 1-1 1z"/><path d="M98 9h-4a1 1 0 1 1 0-2h3V4a1 1 0 1 1 2 0v4a1 1 0 0 1-1 1z"/></g><g opacity=".5" transform="translate(63 46)"><rect width="5" height="2" rx="1"/><rect x="1" y="3" width="5" height="2" rx="1"/><rect y="6" width="5" height="2" rx="1"/></g><g opacity=".5" transform="translate(93 32)"><rect width="5" height="2" rx="1"/><rect x="1" y="3" width="5" height="2" rx="1"/><rect y="6" width="5" height="2" rx="1"/></g><g opacity=".5" transform="rotate(-180 64.5 53)"><rect width="5" height="2" rx="1"/><rect x="1" y="3" width="5" height="2" rx="1"/><rect y="6" width="5" height="2" rx="1"/></g><path d="M10 33h2a6 6 0 1 1-12 0h2a4 4 0 1 0 8 0zm52 50h-2a6 6 0 1 1 12 0h-2a4 4 0 1 0-8 0zm67-7v2a6 6 0 0 1 0-12v2a4 4 0 1 0 0 8zm1-67h2a6 6 0 0 1-12 0h2a4 4 0 1 0 8 0zM9 130v2a6 6 0 0 1 0-12v2a4 4 0 1 0 0 8z" opacity=".5"/><rect opacity=".5" x="33" y="69" width="6" height="6" rx="1"/><rect opacity=".5" x="63" y="17" width="6" height="6" rx="1"/><rect opacity=".5" x="153" y="107" width="6" height="6" rx="1"/><path d="M36 18a6 6 0 1 1 0-12 6 6 0 0 1 0 12zm0-2a4 4 0 1 0 0-8 4 4 0 0 0 0 8z" opacity=".5"/></g></svg>