<svg width="60" height="60" xmlns="http://www.w3.org/2000/svg" xmlns:xlink="http://www.w3.org/1999/xlink"><defs><path d="M30 30h60c16.569 0 30 13.431 30 30 0 16.569-13.431 30-30 30-16.569 0-30-13.431-30-30 0 16.569-13.431 30-30 30C13.431 90 0 76.569 0 60c0-16.569 13.431-30 30-30zm0 0v30h30c0-16.569-13.431-30-30-30zm30 30h30V30c-16.569 0-30 13.431-30 30z" id="a"/><path d="M0 60V0h60v60c0 16.569-13.431 30-30 30C13.431 90 0 76.569 0 60zm0 0h60c0-16.569-13.431-30-30-30C13.431 30 0 43.431 0 60z" id="c"/></defs><g fill="none" fill-rule="evenodd"><g opacity=".1" transform="translate(0 30)" stroke="#000" stroke-width="4"><circle cx="30" cy="30" r="28"/><circle cx="30" cy="30" r="20"/><circle cx="30" cy="30" r="12"/></g><g opacity=".1" transform="translate(-30 -30)"><mask id="b" fill="#fff"><use xlink:href="#a"/></mask><g mask="url(#b)" stroke="#000" stroke-width="4"><g transform="translate(30)"><circle cx="30" cy="30" r="28"/><circle cx="30" cy="30" r="20"/><circle cx="30" cy="30" r="12"/></g></g></g><g opacity=".1"><mask id="d" fill="#fff"><use xlink:href="#c"/></mask><g mask="url(#d)" stroke="#000" stroke-width="4"><g transform="translate(30)"><circle cx="30" cy="30" r="28"/><circle cx="30" cy="30" r="20"/><circle cx="30" cy="30" r="12"/></g></g><g mask="url(#d)" stroke="#000" stroke-width="4"><g transform="translate(-30)"><circle cx="30" cy="30" r="28"/><circle cx="30" cy="30" r="20"/><circle cx="30" cy="30" r="12"/></g></g></g><g opacity=".5" transform="translate(-6 -6)" fill="#000" fill-opacity=".15"><circle cx="36" cy="6" r="6"/><circle cx="6" cy="36" r="6"/><circle cx="36" cy="66" r="6"/><circle cx="66" cy="36" r="6"/></g></g></svg>