<svg width="75" height="75" xmlns="http://www.w3.org/2000/svg" xmlns:xlink="http://www.w3.org/1999/xlink"><defs><path d="M3.15 40H40V2.15c4.425 7.177 12.115 12.127 21 12.777v21.146C47.683 37.048 37.048 47.683 36.073 61H15.927c-.65-8.885-5.6-16.575-12.778-21z" id="a"/></defs><g fill="none" fill-rule="evenodd" opacity=".1"><g transform="translate(50 -25)" stroke="#000" stroke-width="2"><path d="M26 74h48V26H49v-1C49 11.745 38.255 1 25 1S1 11.745 1 25s10.745 24 24 24h1v25z"/><path d="M30 70h40V30H44.408l.23-1.19c.24-1.246.362-2.52.362-3.81 0-11.046-8.954-20-20-20S5 13.954 5 25s8.954 20 20 20c1.29 0 2.564-.122 3.81-.362l1.19-.23V70z"/><path d="M34 66h32V34H38.336l.786-1.471A15.924 15.924 0 0041 25c0-8.837-7.163-16-16-16S9 16.163 9 25s7.163 16 16 16c2.664 0 5.232-.651 7.529-1.878L34 38.336V66z"/><circle cx="25" cy="25" r="12"/><circle cx="25" cy="25" r="8"/><circle cx="25" cy="25" r="4"/></g><g transform="translate(50 50)" stroke="#000" stroke-width="2"><path d="M26 74h48V26H49v-1C49 11.745 38.255 1 25 1S1 11.745 1 25s10.745 24 24 24h1v25z"/><path d="M30 70h40V30H44.408l.23-1.19c.24-1.246.362-2.52.362-3.81 0-11.046-8.954-20-20-20S5 13.954 5 25s8.954 20 20 20c1.29 0 2.564-.122 3.81-.362l1.19-.23V70z"/><path d="M34 66h32V34H38.336l.786-1.471A15.924 15.924 0 0041 25c0-8.837-7.163-16-16-16S9 16.163 9 25s7.163 16 16 16c2.664 0 5.232-.651 7.529-1.878L34 38.336V66z"/><circle cx="25" cy="25" r="12"/><circle cx="25" cy="25" r="8"/><circle cx="25" cy="25" r="4"/></g><g transform="translate(-25 -25)" stroke="#000" stroke-width="2"><path d="M26 74h48V26H49v-1C49 11.745 38.255 1 25 1S1 11.745 1 25s10.745 24 24 24h1v25z"/><path d="M30 70h40V30H44.408l.23-1.19c.24-1.246.362-2.52.362-3.81 0-11.046-8.954-20-20-20S5 13.954 5 25s8.954 20 20 20c1.29 0 2.564-.122 3.81-.362l1.19-.23V70z"/><path d="M34 66h32V34H38.336l.786-1.471A15.924 15.924 0 0041 25c0-8.837-7.163-16-16-16S9 16.163 9 25s7.163 16 16 16c2.664 0 5.232-.651 7.529-1.878L34 38.336V66z"/><circle cx="25" cy="25" r="12"/><circle cx="25" cy="25" r="8"/><circle cx="25" cy="25" r="4"/><path d="M38 38h24v24H38z"/><path d="M42 42h16v16H42z"/><path d="M46 46h8v8h-8z"/></g><g transform="translate(-25 50)" stroke="#000" stroke-width="2"><path d="M26 74h48V26H49v-1C49 11.745 38.255 1 25 1S1 11.745 1 25s10.745 24 24 24h1v25z"/><path d="M30 70h40V30H44.408l.23-1.19c.24-1.246.362-2.52.362-3.81 0-11.046-8.954-20-20-20S5 13.954 5 25s8.954 20 20 20c1.29 0 2.564-.122 3.81-.362l1.19-.23V70z"/><path d="M34 66h32V34H38.336l.786-1.471A15.924 15.924 0 0041 25c0-8.837-7.163-16-16-16S9 16.163 9 25s7.163 16 16 16c2.664 0 5.232-.651 7.529-1.878L34 38.336V66z"/><circle cx="25" cy="25" r="12"/><circle cx="25" cy="25" r="8"/><circle cx="25" cy="25" r="4"/></g><g transform="translate(12 12)"><mask id="b" fill="#fff"><use xlink:href="#a"/></mask><g mask="url(#b)" stroke="#000" stroke-width="2"><path d="M1 1h124v123H1z"/><path d="M17 17h124v123H17z"/><path d="M33 33h124v123H33z"/><path d="M5 5h124v123H5z"/><path d="M21 21h124v123H21z"/><path d="M37 37h124v123H37z"/><path d="M9 9h124v123H9z"/><path d="M25 25h124v123H25z"/><path d="M41 41h124v123H41z"/><path d="M13 13h124v123H13z"/><path d="M29 29h124v123H29z"/><path d="M45 45h124v123H45z"/></g></g></g></svg>