<svg xmlns="http://www.w3.org/2000/svg" width="236" height="411" viewBox="0 0 236 411"><path d="M235.5 14.999l-5-2.499v5zm0 14l-5-2.499v5zm0 16.002l-5-2.501v5zm0 14.998l-5-2.499v5zm0 16l-5-2.499v5zm0 15l-5-2.499v5zm0 16.002l-5-2.501v5zm0 14.998l-5-2.499v5zm0 14l-5-2.499v5zm0 16.002l-5-2.501v5zm0 14.998l-5-2.499v5zm0 16.001l-5-2.5v5zm0 15l-5-2.5v5zm0 16.001l-5-2.501v5zm0 13.999l-5-2.5v5zm0 16.002l-5-2.502v5zm0 14.997l-5-2.499v5zm0 16l-5-2.499v5zm0 15.001l-5-2.5v5zm0 16.001l-5-2.501v5zm0 14l-5-2.501v5zm0 14.999l-5-2.5v5zm0 16.001l-5-2.501v5zm0 15l-5-2.501v5zm0 15.999l-5-2.5v5zm0 15l-5-2.5v5zm-21-391.5l4 2.002-4 1.998zm0 15l4 2.001-4 1.999zm0 15l4 1.997-4 2.003zm0 15l4 2-4 2zm0 16l4 1.999-4 2.001zm0 15l4 1.998-4 2.002zm0 15l4 2.001-4 1.999zm0 16l4 2.002-4 1.998zm0 15l4 2-4 2zm0 15l4 2-4 2zm0 15l4 2.001-4 1.999zm0 16l4 2.001-4 1.999zm0 15l4 1.999-4 2.001zm0 16l4 2-4 2zm0 15l4 1.999-4 2.001zm0 14l4 2-4 2zm0 16l4 1.998-4 2.002zm0 15l4 1.998-4 2.002zm0 16l4 1.999-4 2.001zm0 15l4 2.001-4 1.999zm0 16l4 2-4 2zm0 14l4 2-4 2zm0 16l4 2.001-4 1.999zm0 15l4 1.999-4 2.001zm0 16l4 1.998-4 2.002zm0 15l4 2-4 2zm0 16l4 2.001-4 1.999zm-14-390l3 1.498-3 1.502zm0 14l3 1.501-3 1.499zm0 16l3 1.5-3 1.5zm0 15l3 1.499-3 1.501zm0 16l3 1.5-3 1.5zm0 15l3 1.5-3 1.5zm0 16l3 1.498-3 1.502zm0 14l3 1.502-3 1.498zm0 16l3 1.502-3 1.498zm0 15l3 1.5-3 1.5zm0 16l3 1.5-3 1.5zm0 15l3 1.501-3 1.499zm0 16l3 1.499-3 1.501zm0 14l3 1.5-3 1.5zm0 15l3 1.5-3 1.5zm0 16l3 1.498-3 1.502zm0 15l3 1.499-3 1.501zm0 16l3 1.501-3 1.499zm0 15l3 1.499-3 1.501zm0 15l3 1.498-3 1.502zm0 15l3 1.5-3 1.5zm0 16l3 1.501-3 1.499zm0 15l3 1.499-3 1.501zm0 16l3 1.502-3 1.498zm0 15l3 1.501-3 1.499zm0 16l3 1.5-3 1.5zm-15-391l4 2.5-4 2.5zm0 14l4 2.502-4 2.498zm0 16l4 2.498-4 2.502zm0 15l4 2.5-4 2.5zm0 16l4 2.5-4 2.5zm0 15l4 2.5-4 2.5zm0 15l4 2.501-4 2.499zm0 15l4 2.502-4 2.498zm0 15l4 2.5-4 2.5zm0 16l4 2.499-4 2.501zm0 15l4 2.5-4 2.5zm0 16l4 2.5-4 2.5zm0 15l4 2.499-4 2.501zm0 15l4 2.499-4 2.501zm0 15l4 2.5-4 2.5zm0 15l4 2.5-4 2.5zm0 16l4 2.498-4 2.502zm0 15l4 2.498-4 2.502zm0 16l4 2.499-4 2.501zm0 14l4 2.501-4 2.499zm0 16l4 2.5-4 2.5zm0 15l4 2.5-4 2.5zm0 16l4 2.5-4 2.5zm0 15l4 2.498-4 2.502zm0 16l4 2.5-4 2.5zm0 15l4 2.499-4 2.501zm0 14l4 2.499-4 2.501zm-16-390l5 2.998-5 3.002zm0 15l5 3-5 3zm0 16l5 3.001-5 2.999zm0 15l5 3-5 3zm0 16l5 2.999-5 3.001zm0 15l5 2.999-5 3.001zm0 14l5 2.999-5 3.001zm0 16l5 3.001-5 2.999zm0 15l5 3.001-5 2.999zm0 16l5 3.001-5 2.999zm0 15l5 3-5 3zm0 16l5 3-5 3zm0 14l5 3-5 3zm0 16l5 3.001-5 2.999zm0 15l5 2.999-5 3.001zm0 16l5 2.999-5 3.001zm0 15l5 3-5 3zm0 16l5 2.999-5 3.001zm0 14l5 2.999-5 3.001zm0 15l5 2.999-5 3.001zm0 16l5 3-5 3zm0 15l5 3-5 3zm0 16l5 3-5 3zm0 15l5 3.002-5 2.998zm0 15l5 3-5 3zm0 15l5 3.001-5 2.999zm-17-391v8l7-3.999zm0 16l7 4.001-7 3.999zm0 15l7 3.999-7 4.001zm0 16l7 3.999-7 4.001zm0 15l7 4-7 4zm0 15l7 3.999-7 4.001zm0 15l7 4.001-7 3.999zm0 16l7 4.001-7 3.999zm0 15l7 4.001-7 3.999zm0 16l7 3.999-7 4.001zm0 15l7 4.001-7 3.999zm0 14l7 4.001-7 3.999zm0 16l7 4-7 4zm0 15l7 3.999-7 4.001zm0 16l7 4-7 4zm0 15l7 4.001-7 3.999zm0 16l7 3.998-7 4.002zm0 15l7 3.999-7 4.001zm0 15l7 3.999-7 4.001zm0 15l7 4.001-7 3.999zm0 16l7 3.999-7 4.001zm0 15l7 4.001-7 3.999zm0 16l7 4-7 4zm0 15l7 3.999-7 4.001zm0 14l7 4-7 4zm0 16l7 4-7 4zm0 15l7 3.999-7 4.001zm-16-390l8 4.998-8 5.002zm0 15l8 5-8 5zm0 16l8 5.001-8 4.999zm0 14l8 4.999-8 5.001zm0 15l8 4.999-8 5.001zm0 16l8 4.999-8 5.001zm0 15l8 5.001-8 4.999zm0 16l8 5.001-8 4.999zm0 15l8 5.001-8 4.999zm0 15l8 5.001-8 4.999zm0 15l8 5-8 5zm0 16l8 5-8 5zm0 15l8 5-8 5zm0 15l8 5-8 5zm0 16l8 4.999-8 5.001zm0 14l8 4.999-8 5.001zm0 16l8 4.999-8 5.001zm0 15l8 4.999-8 5.001zm0 16l8 4.999-8 5.001zm0 15l8 4.999-8 5.001zm0 16l8 5-8 5zm0 14l8 4.999-8 5.001zm0 15l8 5-8 5zm0 16l8 5.001-8 4.999zm0 15l8 5-8 5zm0 16l8 5.001-8 4.999zm-16-392v12l10-5.999zm0 15l10 6.001-10 5.999zm0 16l10 5.997-10 6.003zm0 15l10 5.999-10 6.001zm0 16l10 6.001-10 5.999zm0 15l10 5.999-10 6.001zm0 16l10 6.001-10 5.999zm0 14l10 6.001-10 5.999zm0 16l10 6.001-10 5.999zm0 15l10 6-10 6zm0 16l10 6.001-10 5.999zm0 15l10 6.002-10 5.998zm0 16l10 5.999-10 6.001zm0 14l10 5.998-10 6.002zm0 15l10 5.999-10 6.001zm0 16l10 6-10 6zm0 15l10 5.998-10 6.002zm0 16l10 5.999-10 6.001zm0 15l10 6-10 6zm0 15l10 6.002-10 5.998zm0 15l10 5.999-10 6.001zm0 16l10 6-10 6zm0 15l10 6.001-10 5.999zm0 16l10 5.999-10 6.001zm0 15l10 6-10 6zm0 14l10 5.999-10 6.001zm0 16v12l10-6.001zm-14-388l9 4.998-9 5.002zm0 14l9 5-9 5zm0 15l9 5.001-9 4.999zm0 16l9 5-9 5zm0 15l9 4.999-9 5.001zm0 16l9 5.001-9 4.999zm0 15l9 5.001-9 4.999zm0 15l9 5.501-9 5.499zm0 15l9 5-9 5zm0 16l9 5.001-9 4.999zm0 15l9 5.499-9 5.501zm0 16l9 4.999-9 5.001zm0 15l9 5-9 5zm0 14l9 5.501-9 5.499zm0 16l9 4.998-9 5.002zm0 15l9 5-9 5zm0 16l9 5-9 5zm0 15l9 4.999-9 5.001zm0 16l9 4.999-9 5.001zm0 14l9 5-9 5zm0 16l9 5.501-9 5.499zm0 15l9 4.998-9 5.002zm0 15l9 5-9 5zm0 16l9 5.002-9 4.998zm0 15l9 5-9 5zm0 16l9 5.001-9 4.999zm-16-390v9l8-4.498zm0 16l8 4.502-8 4.498zm0 15l8 4.498-8 4.502zm0 15l8 4.499-8 4.501zm0 15l8 4.5-8 4.5zm0 16l8 4.499-8 4.501zm0 15l8 4.5-8 4.5zm0 16l8 4.502-8 4.498zm0 15l8 4.501-8 4.499zm0 14l8 4.499-8 4.501zm0 16l8 4.5-8 4.5zm0 15l8 4.501-8 4.499zm0 16l8 4.499-8 4.501zm0 15l8 4.499-8 4.501zm0 16l8 4.5-8 4.5zm0 14l8 4.501-8 4.499zm0 16l8 4.497-8 4.503zm0 15l8 4.498-8 4.502zm0 16l8 4.5-8 4.5zm0 15l8 4.501-8 4.499zm0 16l8 4.499-8 4.501zm0 14l8 4.501-8 4.499zm0 15l8 4.5-8 4.5zm0 16l8 4.498-8 4.502zm0 15l8 4.498-8 4.502zm0 16l8 4.5-8 4.5zm0 15l8 4.5-8 4.5zm-14-389l6 3.498-6 3.502zm0 15l6 3.501-6 3.499zm0 16l6 3.501-6 3.499zm0 14l6 3.498-6 3.502zm0 15l6 3.499-6 3.501zm0 16l6 3.499-6 3.501zm0 15l6 3.5-6 3.5zm0 16l6 3.501-6 3.499zm0 15l6 3.501-6 3.499zm0 15l6 3.501-6 3.499zm0 15l6 3.5-6 3.5zm0 16l6 3.5-6 3.5zm0 15l6 3.5-6 3.5zm0 16l6 3.501-6 3.499zm0 15l6 3.499-6 3.501zm0 16l6 3.499-6 3.501zm0 14l6 3.5-6 3.5zm0 15l6 3.5-6 3.5zm0 16l6 3.499-6 3.501zm0 15l6 3.498-6 3.502zm0 16l6 3.502-6 3.498zm0 15l6 3.499-6 3.501zm0 15l6 3.499-6 3.501zm0 15l6 3.501-6 3.499zm0 16l6 3.501-6 3.499zm0 15l6 3.5-6 3.5zm-14-389l5 3.001-5 2.999zm0 15l5 3.002-5 2.998zm0 16l5 2.997-5 3.003zm0 15l5 3-5 3zm0 14l5 3-5 3zm0 16l5 2.999-5 3.001zm0 15l5 3.001-5 2.999zm0 16l5 3.001-5 2.999zm0 15l5 3-5 3zm0 16l5 2.999-5 3.001zm0 14l5 2.999-5 3.001zm0 16l5 3.002-5 2.998zm0 15l5 2.999-5 3.001zm0 16l5 2.998-5 3.002zm0 15l5 3-5 3zm0 15l5 3.001-5 2.999zm0 16l5 2.999-5 3.001zm0 14l5 2.999-5 3.001zm0 16l5 2.999-5 3.001zm0 15l5 3.003-5 2.997zm0 16l5 3-5 3zm0 15l5 3-5 3zm0 16l5 3.001-5 2.999zm0 14l5 2.998-5 3.002zm0 15l5 2.999-5 3.001zm0 16l5 2.999-5 3.001zm0 15l5 3-5 3zm-16-389l4 2.498-4 2.502zm0 15l4 2-4 2zm0 16l4 2-4 2zm0 15l4 2.5-4 2.5zm0 15l4 2.5-4 2.5zm0 15l4 1.999-4 2.001zm0 16l4 2.001-4 1.999zm0 15l4 2.5-4 2.5zm0 16l4 2.001-4 1.999zm0 15l4 2.001-4 1.999zm0 14l4 2.5-4 2.5zm0 16l4 2-4 2zm0 15l4 2-4 2zm0 16l4 2.501-4 2.499zm0 15l4 1.999-4 2.001zm0 16l4 2-4 2zm0 14l4 2.5-4 2.5zm0 16l4 2.5-4 2.5zm0 15l4 1.999-4 2.001zm0 16l4 1.999-4 2.001zm0 15l4 2.001-4 1.999zm0 16l4 1.999-4 2.001zm0 15l4 2.001-4 1.999zm0 14l4 2.502-4 2.498zm0 16l4 2.5-4 2.5zm0 15l4 2.001-4 1.999zm-14-389l3 1.501-3 1.499zm0 15l3 1.502-3 1.498zm0 16l3 1.497-3 1.503zm0 15l3 1.499-3 1.501zm0 15l3 1.5-3 1.5zm0 15l3 1.498-3 1.502zm0 15l3 1.501-3 1.499zm0 16l3 1.501-3 1.499zm0 15l3 1.5-3 1.5zm0 16l3 1.501-3 1.499zm0 15l3 1.5-3 1.5zm0 15l3 1.502-3 1.498zm0 15l3 1.5-3 1.5zm0 16l3 1.5-3 1.5zm0 15l3 1.5-3 1.5zm0 16l3 1.499-3 1.501zm0 15l3 1.498-3 1.502zm0 14l3 1.499-3 1.501zm0 16l3 1.499-3 1.501zm0 15l3 1.501-3 1.499zm0 16l3 1.5-3 1.5zm0 15l3 1.501-3 1.499zm0 16l3 1.501-3 1.499zm0 14l3 1.498-3 1.502zm0 16l3 1.498-3 1.502zm0 15l3 1.499-3 1.501zm0 16l3 1.5-3 1.5zm-17-391l4 1.998-4 2.002zm0 15l4 2-4 2zm0 16l4 2.001-4 1.999zm0 15l4 1.999-4 2.001zm0 16l4 2-4 2zm0 14l4 2-4 2zm0 16l4 2.001-4 1.999zm0 15l4 2.001-4 1.999zm0 16l4 2-4 2zm0 15l4 2.001-4 1.999zm0 16l4 1.999-4 2.001zm0 14l4 2-4 2zm0 15l4 2.001-4 1.999zm0 16l4 2.001-4 1.999zm0 15l4 1.999-4 2.001zm0 16l4 2-4 2zm0 15l4 1.999-4 2.001zm0 15l4 1.999-4 2.001zm0 15l4 1.998-4 2.002zm0 16l4 2-4 2zm0 15l4 2.001-4 1.999zm0 16l4 1.998-4 2.002zm0 15l4 2-4 2zm0 16l4 2.002-4 1.998zm0 14l4 2-4 2zm0 15l4 2.001-4 1.999zM.5 4.5v6l5-3zm0 15v6l5-2.999zm0 16v6l5-3.001zm0 15v6l5-3zm0 16v6l5-3.001zm0 14v6l5-3.002zm0 15v6l5-2.999zm0 16v6l5-2.998zm0 15v6l5-3zm0 16v6l5-3zm0 15v6l5-3zm0 15v6l5-3zm0 15v6l5-2.999zm0 16v6l5-3zm0 15v6l5-3.001zm0 15v6l5-3zm0 16v6l5-3.002zm0 14v6l5-3.002zm0 16v6l5-3.001zm0 15v6l5-2.998zm0 16v6l5-3zm0 15v6l5-3zm0 16v6l5-3.001zm0 15v6l5-3.001zm0 14v6l5-3.002zm0 16v6l5-3zm0 15v6l5-2.999z" fill="#FFF" fill-rule="evenodd" opacity=".404"/></svg>