<svg width="446" height="644" xmlns="http://www.w3.org/2000/svg"><path d="M.537 387.284L482.714-94.893l3.535 3.535L4.072 390.82zm8.729 8.729L491.443-86.164l3.535 3.535L12.801 399.548zm8.729 8.729L500.172-77.435l3.536 3.536L21.53 408.278zm8.729 8.728L508.9-68.705l3.535 3.535L30.26 417.006zm8.729 8.73L517.63-59.977l3.535 3.535L38.988 425.735zm8.729 8.729L526.36-51.248l3.536 3.536L47.718 434.465zm8.729 8.729L535.088-42.519l3.536 3.536L56.447 443.194zm8.729 8.729L543.818-33.789l3.536 3.535L65.176 451.923zm8.73 8.73L552.547-25.06l3.535 3.535L73.905 460.652zm8.728 8.728L561.275-16.332l3.536 3.536L82.634 469.38zm8.73 8.729L570.004-7.602l3.536 3.535L91.363 478.11zm8.729 8.73L578.734 1.127l3.535 3.535L100.092 486.84zm8.729 8.729L587.463 9.856l3.535 3.536-482.176 482.176zm8.729 8.729L596.192 18.585l3.536 3.536L117.55 504.298zm8.73 8.729L604.92 27.315l3.536 3.535L126.28 513.027zm8.728 8.729L613.65 36.043l3.535 3.536L135.01 521.755zm8.729 8.73L622.38 44.771l3.536 3.536-482.177 482.177zm8.73 8.728L631.108 53.502l3.536 3.535-482.177 482.177zm8.728 8.73L639.839 62.23l3.535 3.535-482.177 482.177zm8.73 8.729L648.567 70.96l3.535 3.536-482.176 482.176zm8.73 8.729L657.295 79.69l3.536 3.536-482.177 482.177zm8.728 8.729L666.025 88.418l3.535 3.535L187.383 574.13zm8.729 8.729L674.754 97.147l3.535 3.536-482.176 482.176zm8.729 8.729l482.177-482.177 3.536 3.536-482.177 482.177zm8.729 8.729l482.177-482.177 3.536 3.536L213.57 600.318zm8.73 8.73l482.177-482.177 3.535 3.535L222.3 609.047zm8.729 8.728L709.67 132.065l3.535 3.535L231.03 617.776zm8.728 8.73L718.4 140.791l3.536 3.536-482.177 482.177zm8.73 8.729l482.177-482.177 3.535 3.535-482.177 482.177zm8.728 8.729L735.859 158.25l3.535 3.535-482.177 482.177z" fill="#FFF" fill-rule="evenodd" opacity=".25"/></svg>