<svg width="32" height="32" xmlns="http://www.w3.org/2000/svg"><path d="M29.823 7.987a15.914 15.914 0 00-5.817-5.817C21.557.741 18.883.027 15.983.027c-2.9 0-5.574.714-8.023 2.143a15.912 15.912 0 00-5.816 5.817C.714 10.436 0 13.11 0 16.01c0 3.483 1.016 6.615 3.049 9.397 2.032 2.782 4.658 4.707 7.877 5.775.375.07.652.02.832-.146a.814.814 0 00.27-.624l-.01-1.123c-.006-.618-.01-1.235-.01-1.852l-.479.082a6.07 6.07 0 01-1.155.073 8.8 8.8 0 01-1.446-.145c-.5-.09-.965-.298-1.395-.624a2.64 2.64 0 01-.915-1.28l-.208-.479a5.2 5.2 0 00-.656-1.061c-.298-.389-.6-.652-.905-.79l-.146-.105a1.528 1.528 0 01-.27-.25 1.142 1.142 0 01-.187-.292c-.042-.097-.008-.177.104-.24.11-.062.312-.092.603-.092l.416.062c.278.056.62.222 1.03.5.41.277.746.637 1.01 1.081.319.57.704 1.003 1.155 1.301.45.298.905.447 1.363.447.457 0 .853-.034 1.186-.103a4.14 4.14 0 00.936-.313c.125-.93.465-1.644 1.02-2.144a14.25 14.25 0 01-2.133-.374 8.494 8.494 0 01-1.956-.812 5.603 5.603 0 01-1.676-1.394c-.444-.555-.808-1.284-1.092-2.186-.284-.902-.427-1.942-.427-3.121 0-1.68.549-3.108 1.645-4.288-.514-1.262-.465-2.677.145-4.245.403-.125 1-.031 1.79.28.79.313 1.37.58 1.738.802.368.222.662.41.884.562 1.29-.36 2.623-.54 3.996-.54 1.374 0 2.706.18 3.996.54l.791-.5a11.2 11.2 0 011.915-.915c.735-.277 1.297-.354 1.686-.229.624 1.568.68 2.983.166 4.246 1.096 1.179 1.644 2.608 1.644 4.287 0 1.18-.142 2.223-.426 3.132-.285.909-.652 1.637-1.103 2.185a5.818 5.818 0 01-1.686 1.384 8.51 8.51 0 01-1.956.812c-.632.166-1.343.292-2.133.375.72.624 1.081 1.61 1.081 2.955v4.39c0 .25.087.458.26.625.174.166.448.215.823.145 3.219-1.068 5.845-2.993 7.877-5.775 2.032-2.781 3.049-5.913 3.049-9.396 0-2.9-.716-5.573-2.144-8.022z"/></svg>