<svg width="16" height="15" xmlns="http://www.w3.org/2000/svg"><g fill="none" fill-rule="evenodd"><path d="M16 3a3 3 0 0 0-3-3H3a3 3 0 0 0-3 3v8a3 3 0 0 0 3 3h4.03v-.006a.994.994 0 0 0 0-1.987V12H3a1 1 0 0 1-1-1V5h12v1.952h.01c0 .017-.01.031-.01.048a1 1 0 0 0 2 0c0-.017-.009-.031-.01-.048H16V3zM2 4V3a1 1 0 0 1 1-1h10a1 1 0 0 1 1 1v1H2z" fill-rule="nonzero" fill="context-fill"/><g transform="rotate(-45 15.031 -2.26)"><rect stroke="#000" stroke-width=".702" x=".702" y=".351" width="5.62" height="3.138" rx=".702"/><path d="M6.673 2.077V.702A.702.702 0 0 0 5.971 0H1.054A.702.702 0 0 0 .35.702v1.63h.05C.943 2.314.718.19 1.588 1.115c.87.926.917.142 1.578.142.662 0 .664.527 1.115.41.45-.116.307-.76 1.219-.76.59 0 .867.728 1.173 1.17zM4.298 6.458c-.02.39.058.836.236 1.34.122.165.204.36.232.572l.01.023H4.77a1.254 1.254 0 0 1-1.257 1.382 1.254 1.254 0 0 1-1.256-1.382h-.008l.01-.025c.026-.19.096-.368.199-.522.171-.521.239-.984.202-1.388H.843A.843.843 0 0 1 0 5.616V3.985c0-.466.377-.843.843-.843H6.18c.466 0 .843.377.843.843v1.63a.843.843 0 0 1-.843.843H4.298zm-.786 2.27a.35.35 0 0 0 .351-.35.35.35 0 0 0-.35-.349.35.35 0 0 0-.352.35c0 .192.157.349.351.349z" fill="context-fill"/></g></g></svg>