<svg xmlns="http://www.w3.org/2000/svg" viewBox="0 0 16 16"><path d="M11.1 10.4c.2 0 .4.1.5.2l2.1 2.1c.1.1.2.3.2.5s-.1.4-.2.5c-.1.1-.3.2-.5.2s-.4-.1-.5-.2l-2.1-2.1c-.1-.1-.2-.3-.2-.5s.1-.4.2-.5c.1-.2.3-.2.5-.2zm-6.2 0c.2 0 .4.1.5.2.1.1.2.3.2.5s-.1.4-.2.5l-2.1 2.1c-.1.1-.3.2-.5.2s-.4-.1-.5-.2c-.1-.1-.2-.3-.2-.5s.1-.4.2-.5l2.1-2.1c.1-.2.3-.2.5-.2zM.7 7.3h2.9c.2 0 .4.1.5.2.2.1.3.3.3.5s-.1.4-.2.5c-.2.2-.4.2-.6.2H.7c-.2 0-.4-.1-.5-.2C.1 8.4 0 8.2 0 8s.1-.4.2-.5.3-.2.5-.2zM8 11.6c.2 0 .4.1.5.2.1.1.2.3.2.5v2.9c0 .2-.1.4-.2.5-.1.2-.3.3-.5.3s-.4-.1-.5-.2-.2-.3-.2-.5v-2.9c0-.2.1-.4.2-.5.1-.2.3-.3.5-.3zM2.9 2.1c.2 0 .4.1.5.2l2.1 2.1c.1.1.2.3.2.5s-.1.4-.2.5c-.2.2-.4.2-.6.2-.2 0-.4-.1-.5-.2l-2.1-2c-.1-.2-.2-.3-.2-.5s.1-.4.2-.5c.2-.2.4-.3.6-.3zm9.5 5.2h2.9c.2 0 .4.1.5.2s.2.3.2.5-.1.4-.2.5c-.1.1-.3.2-.5.2h-2.9c-.2 0-.4-.1-.5-.2-.1-.1-.2-.3-.2-.5s.1-.4.2-.5c.1-.2.3-.2.5-.2zM8 0c.2 0 .4.1.5.2.1.1.2.3.2.5v2.9c0 .2-.1.4-.2.5-.1.2-.3.3-.5.3s-.4-.1-.5-.2c-.2-.2-.2-.4-.2-.6V.7c0-.2.1-.4.2-.5S7.8 0 8 0zm5.1 2.1c.2 0 .4.1.5.2.1.1.2.3.2.5s-.1.4-.2.5l-2.1 2.1c-.1.1-.3.2-.5.2s-.4-.1-.5-.2-.2-.3-.2-.5.1-.4.2-.5l2.1-2.1c.2-.1.3-.2.5-.2z"/></svg>