<?xml version="1.0" encoding="UTF-8"?>
<svg width="24px" height="24px" viewBox="0 0 24 24" version="1.1" xmlns="http://www.w3.org/2000/svg" xmlns:xlink="http://www.w3.org/1999/xlink">
    <!-- Generator: Sketch 50.2 (55047) - http://www.bohemiancoding.com/sketch -->
    <title>menu-16</title>
    <desc>Created with Sketch.</desc>
    <defs></defs>
    <g id="Page-1" stroke="none" stroke-width="1" fill="none" fill-rule="evenodd">
        <g id="menu-16" fill="#000000" fill-rule="nonzero">
            <path d="M2,4 L22,4 C23.1045695,4 24,3.1045695 24,2 C24,0.8954305 23.1045695,0 22,0 L2,0 C0.8954305,0 0,0.8954305 0,2 C0,3.1045695 0.8954305,4 2,4 Z M22,10 L2,10 C0.8954305,10 0,10.8954305 0,12 C0,13.1045695 0.8954305,14 2,14 L22,14 C23.1045695,14 24,13.1045695 24,12 C24,10.8954305 23.1045695,10 22,10 Z M22,20 L2,20 C0.8954305,20 0,20.8954305 0,22 C0,23.1045695 0.8954305,24 2,24 L22,24 C23.1045695,24 24,23.1045695 24,22 C24,20.8954305 23.1045695,20 22,20 Z" id="Shape"></path>
        </g>
    </g>
</svg>