<svg width="100" height="100" viewBox="0 0 100 100" xmlns="http://www.w3.org/2000/svg"><title>bg-026</title><g fill="none" fill-rule="evenodd" opacity=".2"><path stroke="#FFF" stroke-width="2" stroke-linejoin="round" d="M15.8 53.45l-4.65.75L9 50.05l3.3-3.3 4.15 2.15zM52.8 14.95l-4.65.75L46 11.55l3.3-3.3 4.15 2.15zM77.3 36.2l-3.8-2.75L74.95 29h4.7l1.45 4.45zM45.3 71.45l-4.65.75-2.15-4.15 3.3-3.3 4.15 2.15zM61.5 45.7c1.25 0 2.25 1 2.25 2.25s-1 2.25-2.25 2.25-2.25-1-2.25-2.25c0-1.2 1-2.25 2.25-2.25zM14.5 83.7c1.25 0 2.25 1 2.25 2.25s-1 2.25-2.25 2.25-2.25-1-2.25-2.25c0-1.2 1-2.25 2.25-2.25z"/><path fill="#FFF" fill-rule="nonzero" d="M37.65 40.55l1.25.75-3.7 4.3-1.4-.6zM89.65 7.05l1.25.75-3.7 4.3-1.4-.6zM89.15 88.05l1.25.75-3.7 4.3-1.4-.6zM32.25 86.7l1.25-.7 1.95 5.3-1.2.95zM66.25 72.2l1.25-.75 1.95 5.3-1.2.95z"/><path d="M86.25 64.2c1.1 0 2 .9 2 2s-.9 2-2 2-2-.9-2-2 .9-2 2-2zM18.75 17.2c1.1 0 2 .9 2 2s-.9 2-2 2-2-.9-2-2 .9-2 2-2z" stroke="#FFF" stroke-width="2" stroke-linejoin="round"/></g></svg>