<svg width="84" height="32" xmlns="http://www.w3.org/2000/svg" xmlns:xlink="http://www.w3.org/1999/xlink"><defs><path id="b" d="M71.176 7H79l-6.903 8.213 4.058-.36L66 26l3.821-8.266-3.563.413z"/><filter x="-7.7%" y="-5.3%" width="115.4%" height="121.1%" filterUnits="objectBoundingBox" id="a"><feOffset dy="2" in="SourceAlpha" result="shadowOffsetOuter1"/><feColorMatrix values="0 0 0 0 0 0 0 0 0 0 0 0 0 0 0 0 0 0 0.1 0" in="shadowOffsetOuter1"/></filter><path id="d" d="M31.176-10H39l-6.903 8.213 4.058-.36L26 9 29.821.734l-3.563.413z"/><filter x="-7.7%" y="-5.3%" width="115.4%" height="121.1%" filterUnits="objectBoundingBox" id="c"><feOffset dy="2" in="SourceAlpha" result="shadowOffsetOuter1"/><feColorMatrix values="0 0 0 0 0 0 0 0 0 0 0 0 0 0 0 0 0 0 0.1 0" in="shadowOffsetOuter1"/></filter><path id="f" d="M31.176 23H39l-6.903 8.213 4.058-.36L26 42l3.821-8.266-3.563.413z"/><filter x="-7.7%" y="-5.3%" width="115.4%" height="121.1%" filterUnits="objectBoundingBox" id="e"><feOffset dy="2" in="SourceAlpha" result="shadowOffsetOuter1"/><feColorMatrix values="0 0 0 0 0 0 0 0 0 0 0 0 0 0 0 0 0 0 0.1 0" in="shadowOffsetOuter1"/></filter><path id="h" d="M67.38 9H74l-5.84 6.916 3.433-.303L63 25l3.233-6.961-3.015.348z"/><filter x="-9.1%" y="-6.2%" width="118.2%" height="125%" filterUnits="objectBoundingBox" id="g"><feOffset dy="2" in="SourceAlpha" result="shadowOffsetOuter1"/><feColorMatrix values="0 0 0 0 0 0 0 0 0 0 0 0 0 0 0 0 0 0 0.1 0" in="shadowOffsetOuter1"/></filter><path id="j" d="M27.38-8H34l-5.84 6.916 3.433-.303L23 8l3.233-6.961-3.015.348z"/><filter x="-9.1%" y="-6.2%" width="118.2%" height="125%" filterUnits="objectBoundingBox" id="i"><feOffset dy="2" in="SourceAlpha" result="shadowOffsetOuter1"/><feColorMatrix values="0 0 0 0 0 0 0 0 0 0 0 0 0 0 0 0 0 0 0.1 0" in="shadowOffsetOuter1"/></filter><path id="l" d="M27.38 24H34l-5.84 6.916 3.433-.303L23 40l3.233-6.961-3.015.348z"/><filter x="-9.1%" y="-6.2%" width="118.2%" height="125%" filterUnits="objectBoundingBox" id="k"><feOffset dy="2" in="SourceAlpha" result="shadowOffsetOuter1"/><feColorMatrix values="0 0 0 0 0 0 0 0 0 0 0 0 0 0 0 0 0 0 0.1 0" in="shadowOffsetOuter1"/></filter></defs><g fill="none" fill-rule="evenodd"><use fill="#000" filter="url(#a)" xlink:href="#b"/><use fill="#FF1AD9" xlink:href="#b"/><use fill="#000" filter="url(#c)" xlink:href="#d"/><use fill="#FF1AD9" xlink:href="#d"/><use fill="#000" filter="url(#e)" xlink:href="#f"/><use fill="#FF1AD9" xlink:href="#f"/><use fill="#000" filter="url(#g)" xlink:href="#h"/><use fill="#00C8D7" xlink:href="#h"/><use fill="#000" filter="url(#i)" xlink:href="#j"/><use fill="#00C8D7" xlink:href="#j"/><g><use fill="#000" filter="url(#k)" xlink:href="#l"/><use fill="#00C8D7" xlink:href="#l"/></g></g></svg>