<svg width="36" height="160" xmlns="http://www.w3.org/2000/svg"><g fill="#FFF" fill-rule="evenodd" opacity=".603"><g transform="translate(-15)"><path d="M21.5 33c0-6.351 5.149-11.5 11.5-11.5S44.5 26.649 44.5 33a.75.75 0 1 1-1.5 0c0-5.523-4.477-10-10-10s-10 4.477-10 10a.75.75 0 1 1-1.5 0z" opacity=".2"/><path d="M3.5 15C3.5 8.649 8.649 3.5 15 3.5S26.5 8.649 26.5 15a.75.75 0 1 1-1.5 0c0-5.523-4.477-10-10-10S5 9.477 5 15a.75.75 0 1 1-1.5 0zM39.5 15c0-6.351 5.149-11.5 11.5-11.5S62.5 8.649 62.5 15a.75.75 0 1 1-1.5 0c0-5.523-4.477-10-10-10S41 9.477 41 15a.75.75 0 1 1-1.5 0z" opacity=".1"/><circle opacity=".2" cx="33" cy="33" r="3"/><circle opacity=".1" cx="15" cy="15" r="3"/><circle opacity=".1" cx="51" cy="15" r="3"/><path d="M48 33a.75.75 0 1 1-1.5 0c0-7.456-6.044-13.5-13.5-13.5S19.5 25.544 19.5 33a.75.75 0 1 1-1.5 0c0-8.284 6.716-15 15-15 8.284 0 15 6.716 15 15z" opacity=".2"/><path d="M30 15a.75.75 0 1 1-1.5 0c0-7.456-6.044-13.5-13.5-13.5S1.5 7.544 1.5 15A.75.75 0 1 1 0 15C0 6.716 6.716 0 15 0c8.284 0 15 6.716 15 15zM66 15a.75.75 0 1 1-1.5 0c0-7.456-6.044-13.5-13.5-13.5S37.5 7.544 37.5 15a.75.75 0 1 1-1.5 0c0-8.284 6.716-15 15-15 8.284 0 15 6.716 15 15z" opacity=".1"/></g><g transform="translate(-15 36)"><path d="M21.5 33c0-6.351 5.149-11.5 11.5-11.5S44.5 26.649 44.5 33a.75.75 0 1 1-1.5 0c0-5.523-4.477-10-10-10s-10 4.477-10 10a.75.75 0 1 1-1.5 0z" opacity=".3"/><path d="M3.5 15C3.5 8.649 8.649 3.5 15 3.5S26.5 8.649 26.5 15a.75.75 0 1 1-1.5 0c0-5.523-4.477-10-10-10S5 9.477 5 15a.75.75 0 1 1-1.5 0zM39.5 15c0-6.351 5.149-11.5 11.5-11.5S62.5 8.649 62.5 15a.75.75 0 1 1-1.5 0c0-5.523-4.477-10-10-10S41 9.477 41 15a.75.75 0 1 1-1.5 0z" opacity=".25"/><circle opacity=".3" cx="33" cy="33" r="3"/><circle opacity=".25" cx="15" cy="15" r="3"/><circle opacity=".25" cx="51" cy="15" r="3"/><path d="M48 33a.75.75 0 1 1-1.5 0c0-7.456-6.044-13.5-13.5-13.5S19.5 25.544 19.5 33a.75.75 0 1 1-1.5 0c0-8.284 6.716-15 15-15 8.284 0 15 6.716 15 15z" opacity=".3"/><path d="M30 15a.75.75 0 1 1-1.5 0c0-7.456-6.044-13.5-13.5-13.5S1.5 7.544 1.5 15A.75.75 0 1 1 0 15C0 6.716 6.716 0 15 0c8.284 0 15 6.716 15 15zM66 15a.75.75 0 1 1-1.5 0c0-7.456-6.044-13.5-13.5-13.5S37.5 7.544 37.5 15a.75.75 0 1 1-1.5 0c0-8.284 6.716-15 15-15 8.284 0 15 6.716 15 15z" opacity=".25"/></g><g transform="translate(-15 72)"><path d="M21.5 33c0-6.351 5.149-11.5 11.5-11.5S44.5 26.649 44.5 33a.75.75 0 1 1-1.5 0c0-5.523-4.477-10-10-10s-10 4.477-10 10a.75.75 0 1 1-1.5 0z" opacity=".3"/><path d="M3.5 15C3.5 8.649 8.649 3.5 15 3.5S26.5 8.649 26.5 15a.75.75 0 1 1-1.5 0c0-5.523-4.477-10-10-10S5 9.477 5 15a.75.75 0 1 1-1.5 0zM39.5 15c0-6.351 5.149-11.5 11.5-11.5S62.5 8.649 62.5 15a.75.75 0 1 1-1.5 0c0-5.523-4.477-10-10-10S41 9.477 41 15a.75.75 0 1 1-1.5 0z" opacity=".25"/><circle opacity=".3" cx="33" cy="33" r="3"/><circle opacity=".25" cx="15" cy="15" r="3"/><circle opacity=".25" cx="51" cy="15" r="3"/><path d="M48 33a.75.75 0 1 1-1.5 0c0-7.456-6.044-13.5-13.5-13.5S19.5 25.544 19.5 33a.75.75 0 1 1-1.5 0c0-8.284 6.716-15 15-15 8.284 0 15 6.716 15 15z" opacity=".3"/><path d="M30 15a.75.75 0 1 1-1.5 0c0-7.456-6.044-13.5-13.5-13.5S1.5 7.544 1.5 15A.75.75 0 1 1 0 15C0 6.716 6.716 0 15 0c8.284 0 15 6.716 15 15zM66 15a.75.75 0 1 1-1.5 0c0-7.456-6.044-13.5-13.5-13.5S37.5 7.544 37.5 15a.75.75 0 1 1-1.5 0c0-8.284 6.716-15 15-15 8.284 0 15 6.716 15 15z" opacity=".25"/></g><g transform="translate(-15 108)"><path d="M21.5 33c0-6.351 5.149-11.5 11.5-11.5S44.5 26.649 44.5 33a.75.75 0 1 1-1.5 0c0-5.523-4.477-10-10-10s-10 4.477-10 10a.75.75 0 1 1-1.5 0z" opacity=".3"/><path d="M3.5 15C3.5 8.649 8.649 3.5 15 3.5S26.5 8.649 26.5 15a.75.75 0 1 1-1.5 0c0-5.523-4.477-10-10-10S5 9.477 5 15a.75.75 0 1 1-1.5 0zM39.5 15c0-6.351 5.149-11.5 11.5-11.5S62.5 8.649 62.5 15a.75.75 0 1 1-1.5 0c0-5.523-4.477-10-10-10S41 9.477 41 15a.75.75 0 1 1-1.5 0z" opacity=".25"/><circle opacity=".3" cx="33" cy="33" r="3"/><circle opacity=".25" cx="15" cy="15" r="3"/><circle opacity=".25" cx="51" cy="15" r="3"/><path d="M48 33a.75.75 0 1 1-1.5 0c0-7.456-6.044-13.5-13.5-13.5S19.5 25.544 19.5 33a.75.75 0 1 1-1.5 0c0-8.284 6.716-15 15-15 8.284 0 15 6.716 15 15z" opacity=".3"/><path d="M30 15a.75.75 0 1 1-1.5 0c0-7.456-6.044-13.5-13.5-13.5S1.5 7.544 1.5 15A.75.75 0 1 1 0 15C0 6.716 6.716 0 15 0c8.284 0 15 6.716 15 15zM66 15a.75.75 0 1 1-1.5 0c0-7.456-6.044-13.5-13.5-13.5S37.5 7.544 37.5 15a.75.75 0 1 1-1.5 0c0-8.284 6.716-15 15-15 8.284 0 15 6.716 15 15z" opacity=".25"/></g></g></svg>