<svg width="32" height="32" viewBox="0 0 32 32" xmlns="http://www.w3.org/2000/svg"><title>icon</title><g fill="none" fill-rule="evenodd"><path d="M8 21a3.988 3.988 0 0 0-3.822 2.88c0 .02-.028.03-.034.05-.724 2.27-1.41 4.22-3.518 5.146L.58 29.1l-.048.024A1 1 0 0 0 0 30a1 1 0 0 0 1 1 13.948 13.948 0 0 0 9.65-3c.012-.012.014-.026.026-.038A3.986 3.986 0 0 0 8 21z" fill="#0A84FF" fill-rule="nonzero"/><path d="M31.386 1.614a1.968 1.968 0 0 0-2.676-.092l-16.062 14a1.964 1.964 0 0 0-.098 2.866l2.064 2.062c.368.367.866.573 1.386.574h.066a1.964 1.964 0 0 0 1.412-.67l14-16.062a1.964 1.964 0 0 0-.092-2.678z" fill-opacity=".8" fill="#0C0C0D"/></g></svg>