<?xml version="1.0" encoding="UTF-8"?>
<svg width="32px" height="32px" viewBox="0 0 32 32" version="1.1" xmlns="http://www.w3.org/2000/svg" xmlns:xlink="http://www.w3.org/1999/xlink">
    <!-- Generator: Sketch 50.2 (55047) - http://www.bohemiancoding.com/sketch -->
    <title>github-logo</title>
    <desc>Created with Sketch.</desc>
    <defs></defs>
    <g id="Page-1" stroke="none" stroke-width="1" fill="none" fill-rule="evenodd">
        <g id="github-logo" fill="#000000" fill-rule="nonzero">
            <path d="M29.8228337,7.98709795 C28.393549,5.53818679 26.4548155,3.59938041 24.006123,2.17024146 C21.5570661,0.741029613 18.883426,0.0266059226 15.9833075,0.0266059226 C13.0835535,0.0266059226 10.4090387,0.741248292 7.96049203,2.17024146 C5.51158087,3.59930752 3.57292027,5.53818679 2.14363554,7.98709795 C0.714569476,10.4359362 0,13.1100866 0,16.0094761 C0,19.4923007 1.01612756,22.6241458 3.04889294,25.4058132 C5.08143964,28.1876993 7.70718907,30.112656 10.9259226,31.1809021 C11.3005923,31.2504419 11.5779499,31.2015308 11.758287,31.0354077 C11.938697,30.8690661 12.0287927,30.660738 12.0287927,30.4112984 C12.0287927,30.3696765 12.025221,29.9952255 12.0182961,29.287508 C12.0117218,28.6702232 12.0082229,28.0529096 12.0077995,27.43559 L11.5291116,27.5183964 C11.2239089,27.5743052 10.8388884,27.5979954 10.3740501,27.5912893 C9.90943052,27.5848018 9.42709795,27.5361093 8.92770843,27.4455763 C8.42810023,27.3558451 7.96340774,27.1477358 7.53326651,26.8216856 C7.10334396,26.4956355 6.79814123,26.0688474 6.61773121,25.5419772 L6.40962187,25.0630706 C6.27090661,24.7442369 6.05251936,24.3900501 5.75416856,24.0018223 C5.45581777,23.6132301 5.1541139,23.349795 4.84891116,23.2110797 L4.70319818,23.1067699 C4.60610478,23.0374487 4.51600911,22.9538405 4.43269248,22.85682 C4.34944875,22.7597995 4.28712528,22.6627062 4.24550342,22.565467 C4.20380866,22.4681549 4.23835991,22.3883371 4.34952164,22.3257221 C4.46068337,22.2631071 4.66157631,22.2327107 4.95307517,22.2327107 L5.36914806,22.2948884 C5.64665148,22.3505057 5.98990433,22.5166287 6.39934396,22.7942779 C6.80856492,23.0717084 7.14496583,23.4323827 7.40861959,23.8761549 C7.72789066,24.4451572 8.1125467,24.8787244 8.56368109,25.1770752 C9.01445103,25.475426 9.4689385,25.6243462 9.92670615,25.6243462 C10.3844738,25.6243462 10.7798451,25.5896492 11.1129658,25.5206196 C11.4457221,25.4512255 11.7579226,25.3469157 12.0494214,25.2082733 C12.174287,24.2783052 12.5142597,23.5638815 13.0690478,23.064492 C12.2783052,22.9813941 11.5673804,22.8562369 10.9359089,22.6898223 C10.3048018,22.5231891 9.6526287,22.2527563 8.97982688,21.877795 C8.30666059,21.503344 7.74822779,21.0383599 7.30438269,20.4836446 C6.86046469,19.9286378 6.49614579,19.2 6.21193622,18.2983872 C5.92758087,17.39641 5.78536674,16.3559362 5.78536674,15.1766743 C5.78536674,13.4975854 6.33352164,12.068738 7.42961276,10.8893303 C6.9161549,9.62697039 6.9646287,8.21182688 7.57517995,6.64404556 C7.97754897,6.51903417 8.57425057,6.61284738 9.36499317,6.92490205 C10.1558815,7.23710251 10.7349431,7.5045467 11.1027608,7.72628702 C11.4705786,7.94795444 11.7652847,8.13579954 11.9873166,8.28814579 C13.2778861,7.92754442 14.609713,7.74720729 15.9831617,7.74720729 C17.3566105,7.74720729 18.6887289,7.92754442 19.9793713,8.28814579 L20.7701868,7.78890205 C21.3109795,7.45578132 21.9495945,7.15050569 22.6845011,6.87300228 C23.4198451,6.59564465 23.9821412,6.51925285 24.3708064,6.64426424 C24.9949157,8.21211845 25.050533,9.62718907 24.5369294,10.889549 C25.6329476,12.0689567 26.1813212,13.4981686 26.1813212,15.1768929 C26.1813212,16.3561549 26.0385968,17.3999089 25.7546788,18.3088109 C25.4703964,19.2178588 25.1029431,19.9457677 24.6521731,20.4940683 C24.2008929,21.0422961 23.6388884,21.5036355 22.9660866,21.8780137 C22.293139,22.2526834 21.6407472,22.5231162 21.0096401,22.6897494 C20.3782415,22.8563827 19.6673166,22.9816128 18.876574,23.0648565 C19.5977768,23.6889658 19.958451,24.6741139 19.958451,26.0198633 L19.958451,30.4107153 C19.958451,30.6601549 20.0451936,30.86841 20.2188246,31.0348246 C20.3922369,31.2009476 20.6660957,31.2498588 21.0407654,31.180246 C24.2599362,30.1121458 26.8856856,28.1871162 28.9181595,25.4052301 C30.9504146,22.6235626 31.9669066,19.4917175 31.9669066,16.0088929 C31.9661777,13.1098679 31.2512437,10.4359362 29.8228337,7.98709795 Z" id="Shape"></path>
        </g>
    </g>
</svg>